<svg width="20" height="20" viewBox="0 0 20 20" fill="none" xmlns="http://www.w3.org/2000/svg">
<path d="M5 8.83325C5 9.11659 5.21667 9.33325 5.5 9.33325H12.8333C13.1167 9.33325 13.3333 9.11659 13.3333 8.83325C13.3333 8.54992 13.1167 8.33325 12.8333 8.33325H5.5C5.21667 8.33325 5 8.54992 5 8.83325Z" fill="#9AAABB"/>
<path d="M11.1665 4.33325C11.4498 4.33325 11.6665 4.11659 11.6665 3.83325C11.6665 3.54992 11.4498 3.33325 11.1665 3.33325H7.1665C6.88317 3.33325 6.6665 3.54992 6.6665 3.83325C6.6665 4.11659 6.88317 4.33325 7.1665 4.33325H11.1665Z" fill="#9AAABB"/>
<path d="M3.83333 0C2.63333 0 1.66667 0.966667 1.66667 2.16667V13.3333C1.66667 13.6167 1.88333 13.8333 2.16667 13.8333C2.45 13.8333 2.66667 13.6167 2.66667 13.3333V2.16667C2.66667 1.51667 3.18333 1 3.83333 1H16C15.7833 1.33333 15.6667 1.73333 15.6667 2.16667V17.1667C15.6667 17.8167 15.15 18.3333 14.5 18.3333C13.85 18.3333 13.3333 17.8167 13.3333 17.1667V15.5C13.3333 15.2167 13.1167 15 12.8333 15H0.5C0.216667 15 0 15.2167 0 15.5V17.1667C0 18.3667 0.966667 19.3333 2.16667 19.3333H14.5C15.7 19.3333 16.6667 18.3667 16.6667 17.1667V2.16667C16.6667 1.51667 17.1833 1 17.8333 1C18.4833 1 19 1.51667 19 2.16667V3.33333H17.8333C17.55 3.33333 17.3333 3.55 17.3333 3.83333C17.3333 4.11667 17.55 4.33333 17.8333 4.33333H19.5C19.7833 4.33333 20 4.11667 20 3.83333V2.16667C20 0.966667 19.0333 0 17.8333 0H3.83333ZM2.16667 18.3333C1.51667 18.3333 1 17.8167 1 17.1667V16H12.3333V17.1667C12.3333 17.6 12.4667 18 12.6667 18.3333H2.16667Z" fill="#9AAABB"/>
<path d="M5.5332 10.8333C5.24987 10.8333 5.0332 11.0499 5.0332 11.3333C5.0332 11.6166 5.24987 11.8333 5.5332 11.8333H10.3665C10.6499 11.8333 10.8665 11.6166 10.8665 11.3333C10.8665 11.0499 10.6499 10.8333 10.3665 10.8333H5.5332Z" fill="#9AAABB"/>
<path d="M12.8335 10.8333C12.5502 10.8333 12.3335 11.0499 12.3335 11.3333C12.3335 11.6166 12.5502 11.8333 12.8335 11.8333H12.8668C13.1502 11.8333 13.3668 11.6166 13.3668 11.3333C13.3668 11.0499 13.1502 10.8333 12.8668 10.8333H12.8335Z" fill="#9AAABB"/>
</svg>
