<svg width="20" height="17" viewBox="0 0 20 17" fill="none" xmlns="http://www.w3.org/2000/svg">
<path d="M3.43903 6.86515C3.98133 5.44161 5.09982 4.25533 6.48947 3.61135C6.74367 3.49272 6.8623 3.18768 6.74367 2.93348C6.62504 2.67927 6.32 2.56065 6.0658 2.67927C4.4389 3.42494 3.13399 4.83152 2.49001 6.49232C2.38833 6.74652 2.5239 7.05156 2.77811 7.15324C2.84589 7.17019 2.89673 7.18714 2.96452 7.18714C3.16788 7.18714 3.3543 7.05156 3.43903 6.86515Z" fill="#9AAABB"/>
<path d="M8.38771 0.0186384C3.86291 0.306735 0.270174 3.95031 0.0159714 8.45817C-0.153497 11.3391 1.03278 14.0337 3.23587 15.8809C3.54092 16.1181 3.93069 16.2537 4.32047 16.2537H16.7764C18.4202 16.2537 19.8099 15.0166 19.9963 13.3897C20.0302 13.1186 19.8268 12.8643 19.5557 12.8305C19.2845 12.7966 19.0303 12.9999 18.9964 13.2711C18.8609 14.3896 17.9118 15.2369 16.7764 15.2369H4.33742C4.16795 15.2369 4.01543 15.1861 3.8968 15.0844C1.93097 13.4575 0.897207 11.051 1.04973 8.50901C1.27004 4.50955 4.47299 1.28965 8.47245 1.0185C11.5398 0.832087 14.4038 2.3912 15.9291 5.08575C16.0646 5.323 16.3697 5.42468 16.6239 5.27216C16.8611 5.13659 16.9628 4.83154 16.8103 4.57734C15.0987 1.54385 11.8788 -0.201671 8.38771 0.0186384Z" fill="#9AAABB"/>
<path d="M8.5741 8.69541L10.1671 11.2374C10.4721 11.7289 11.0144 12.0339 11.6076 12.0339C11.6076 12.0339 17.0306 12.0509 19.0981 12.0339C19.454 12.0339 19.7082 11.6781 19.5726 11.3391L17.6407 6.52621C17.539 6.27201 17.2848 6.10254 17.0136 6.10254H10.0146C8.67578 6.10254 7.86233 7.57692 8.5741 8.69541ZM10.5908 7.71249C10.5908 8.08532 10.2857 8.39036 9.9129 8.39036C9.54007 8.39036 9.23502 8.08532 9.23502 7.71249C9.23502 7.33966 9.54007 7.03462 9.9129 7.03462C10.2857 7.03462 10.5908 7.33966 10.5908 7.71249Z" fill="#9AAABB"/>
<path d="M2.55821 9.15304C2.83899 9.15304 3.06662 8.92542 3.06662 8.64464C3.06662 8.36385 2.83899 8.13623 2.55821 8.13623C2.27743 8.13623 2.0498 8.36385 2.0498 8.64464C2.0498 8.92542 2.27743 9.15304 2.55821 9.15304Z" fill="#9AAABB"/>
</svg>
