<svg width="20" height="20" viewBox="0 0 20 20" fill="none" xmlns="http://www.w3.org/2000/svg">
<path d="M14.2005 14.381C14.2322 14.381 14.264 14.3969 14.2957 14.3969C14.5179 14.3969 14.7243 14.2382 14.756 14.0159C15.0576 12.4921 15.2163 10.4445 15.2163 8.25403C15.2163 5.96832 15.0259 3.77784 14.7084 2.26991C14.6608 2.01594 14.4068 1.84133 14.137 1.90483C13.883 1.95244 13.7084 2.20641 13.7719 2.47625C14.0735 3.9207 14.2481 6.03181 14.2481 8.25403C14.2481 10.3493 14.0894 12.381 13.8036 13.8255C13.7719 14.0794 13.9465 14.3334 14.2005 14.381Z" fill="#9AAABB"/>
<path d="M4.66087 11.8095C4.42278 11.7143 4.13706 11.8254 4.04183 12.0635C3.94659 12.3016 4.0577 12.5873 4.29579 12.6825L7.10532 13.873C7.16881 13.9048 7.2323 13.9048 7.29579 13.9048C7.48627 13.9048 7.66087 13.7937 7.74024 13.6191C7.83548 13.381 7.72437 13.0952 7.48627 13L4.66087 11.8095Z" fill="#9AAABB"/>
<path d="M19.5022 8.41271C19.5022 8.14287 19.2959 7.93652 19.026 7.93652H16.8038C16.534 7.93652 16.3276 8.14287 16.3276 8.41271C16.3276 8.68256 16.534 8.8889 16.8038 8.8889H19.026C19.2959 8.8889 19.5022 8.68256 19.5022 8.41271Z" fill="#9AAABB"/>
<path d="M16.851 5.55562L17.851 4.55562C18.0415 4.36514 18.0415 4.06355 17.851 3.88895C17.6606 3.69847 17.359 3.69847 17.1844 3.88895L16.1844 4.88895C15.9939 5.07943 15.9939 5.38101 16.1844 5.55562C16.2796 5.65086 16.4066 5.69848 16.5177 5.69848C16.6288 5.69848 16.7558 5.65086 16.851 5.55562Z" fill="#9AAABB"/>
<path d="M16.1687 11.9523L17.1687 12.9523C17.264 13.0476 17.391 13.0952 17.5021 13.0952C17.6132 13.0952 17.7402 13.0476 17.8354 12.9523C18.0259 12.7619 18.0259 12.4603 17.8354 12.2857L16.8354 11.2857C16.6449 11.0952 16.3433 11.0952 16.1687 11.2857C15.9783 11.4603 15.9783 11.7619 16.1687 11.9523Z" fill="#9AAABB"/>
<path d="M0.0735064 10.3333L1.43859 18.5238C1.58144 19.381 2.3116 20 3.18462 20C4.15287 20 4.94652 19.2064 4.94652 18.2381V15L5.64493 15.2857C5.88303 15.381 6.16874 15.2698 6.26398 15.0159C6.35922 14.7778 6.24811 14.4921 5.99414 14.3968L4.64494 13.8413C4.50208 13.7778 4.32747 13.7937 4.20049 13.8889C4.07351 13.9841 3.99414 14.127 3.99414 14.2857V18.2222C3.99414 18.6667 3.62906 19.0317 3.18462 19.0317C2.78779 19.0317 2.45446 18.746 2.37509 18.3492L1.02589 10.1746C0.692554 8.14286 1.7243 6.09524 3.53382 5.19048C3.67668 5.12698 3.83541 5.04762 3.97827 4.98413L8.77192 2.96825C8.51795 4.42857 8.39097 6.28571 8.39097 8.25397C8.39097 10.3651 8.5497 12.3492 8.81954 13.8413C9.15287 15.6825 9.61319 16.5079 10.2957 16.5079H12.9941C13.2481 16.5079 13.4545 16.3175 13.4703 16.0635C13.4862 15.8095 13.3116 15.5873 13.0576 15.5556C12.7719 15.2857 12.2799 13.6032 12.1053 10.5714C12.1211 10.5714 12.137 10.5556 12.1529 10.5556C13.0576 10.1429 13.6291 9.2381 13.6291 8.25397C13.6291 7.26984 13.0576 6.36508 12.1529 5.95238C12.137 5.95238 12.1211 5.93651 12.1053 5.93651C12.2799 2.90476 12.7719 1.22222 13.0576 0.952381C13.3116 0.904762 13.4862 0.698413 13.4703 0.444444C13.4545 0.190476 13.2481 0 12.9941 0H10.2957C9.7243 0 9.3116 0.571429 8.99414 1.84127L3.59732 4.11111C3.42271 4.19048 3.26398 4.25397 3.10525 4.33333C0.914776 5.42857 -0.323319 7.88889 0.0735064 10.3333ZM12.6767 8.25397C12.6767 8.74603 12.4386 9.20635 12.0576 9.50794C12.0418 9.11111 12.0418 8.68254 12.0418 8.25397C12.0418 7.8254 12.0418 7.39683 12.0576 7C12.4386 7.30159 12.6767 7.76191 12.6767 8.25397ZM9.75605 2.84127C10.01 1.4127 10.2799 1.03175 10.3592 0.952381H11.9783C11.4386 2.28571 11.0894 5.04762 11.0894 8.25397C11.0894 11.4603 11.4386 14.2222 11.9941 15.5556H10.3592C10.2799 15.4762 10.01 15.0952 9.75605 13.6667C9.4862 12.2222 9.34335 10.3016 9.34335 8.25397C9.34335 6.20635 9.4862 4.28571 9.75605 2.84127Z" fill="#9AAABB"/>
</svg>
