<svg width="17" height="20" viewBox="0 0 17 20" fill="none" xmlns="http://www.w3.org/2000/svg">
<path d="M3.91304 0C3.66957 0 3.47826 0.191304 3.47826 0.434783V1.30435H0.434783C0.191304 1.30435 0 1.49565 0 1.73913V2.6087C0 2.71304 0.0347147 2.81732 0.10428 2.88689L3.0608 6.36515C3.14776 6.4695 3.26957 6.52174 3.3913 6.52174H3.47826V7.3913H0.434783C0.191304 7.3913 0 7.58261 0 7.82609V8.69565C0 8.8 0.0347147 8.90428 0.10428 8.97385L3.0608 12.4521C3.14776 12.5565 3.26957 12.6087 3.3913 12.6087H3.47826V13.4783H0.434783C0.191304 13.4783 0 13.6696 0 13.913V14.7826C0 14.887 0.0347147 14.9912 0.10428 15.0608L3.0608 18.5391C3.14776 18.6434 3.26957 18.6957 3.3913 18.6957H3.47826V19.5652C3.47826 19.8087 3.66957 20 3.91304 20H12.6087C12.8522 20 13.0435 19.8087 13.0435 19.5652V18.6957H13.1304C13.2522 18.6957 13.374 18.6434 13.4609 18.5391L16.4175 15.0608C16.487 14.9738 16.5217 14.887 16.5217 14.7826V13.913C16.5217 13.6696 16.3304 13.4783 16.087 13.4783H13.0435V12.6087H13.1304C13.2522 12.6087 13.374 12.5565 13.4609 12.4521L16.4175 8.97385C16.487 8.88689 16.5217 8.8 16.5217 8.69565V7.82609C16.5217 7.58261 16.3304 7.3913 16.087 7.3913H13.0435V6.52174H13.1304C13.2522 6.52174 13.374 6.4695 13.4609 6.36515L16.4175 2.88689C16.487 2.79993 16.5217 2.71304 16.5217 2.6087V1.73913C16.5217 1.49565 16.3304 1.30435 16.087 1.30435H13.0435V0.434783C13.0435 0.191304 12.8522 0 12.6087 0H3.91304ZM4.34783 0.869565H12.1739V19.1304H4.34783V0.869565ZM8.26087 1.30435C6.81739 1.30435 5.65217 2.46957 5.65217 3.91304C5.65217 5.35652 6.81739 6.52174 8.26087 6.52174C9.70435 6.52174 10.8696 5.35652 10.8696 3.91304C10.8696 2.46957 9.70435 1.30435 8.26087 1.30435ZM0.869565 2.17391H3.47826V5.51291L0.869565 2.45211V2.17391ZM8.26087 2.17391C9.21739 2.17391 10 2.95652 10 3.91304C10 4.86957 9.21739 5.65217 8.26087 5.65217C7.30435 5.65217 6.52174 4.86957 6.52174 3.91304C6.52174 2.95652 7.30435 2.17391 8.26087 2.17391ZM13.0435 2.17391H15.6522V2.45211L13.0435 5.53057V2.17391ZM8.26087 7.3913C6.81739 7.3913 5.65217 8.55652 5.65217 10C5.65217 11.4435 6.81739 12.6087 8.26087 12.6087C9.70435 12.6087 10.8696 11.4435 10.8696 10C10.8696 8.55652 9.70435 7.3913 8.26087 7.3913ZM0.869565 8.26087H3.47826V11.5999L0.869565 8.53906V8.26087ZM8.26087 8.26087C9.21739 8.26087 10 9.04348 10 10C10 10.9565 9.21739 11.7391 8.26087 11.7391C7.30435 11.7391 6.52174 10.9565 6.52174 10C6.52174 9.04348 7.30435 8.26087 8.26087 8.26087ZM13.0435 8.26087H15.6522V8.53906L13.0435 11.6175V8.26087ZM8.26087 13.4783C6.81739 13.4783 5.65217 14.6435 5.65217 16.087C5.65217 17.5304 6.81739 18.6957 8.26087 18.6957C9.70435 18.6957 10.8696 17.5304 10.8696 16.087C10.8696 14.6435 9.70435 13.4783 8.26087 13.4783ZM0.869565 14.3478H3.47826V17.6868L0.869565 14.6087V14.3478ZM8.26087 14.3478C9.21739 14.3478 10 15.1304 10 16.087C10 17.0435 9.21739 17.8261 8.26087 17.8261C7.30435 17.8261 6.52174 17.0435 6.52174 16.087C6.52174 15.1304 7.30435 14.3478 8.26087 14.3478ZM13.0435 14.3478H15.6522V14.626L13.0435 17.7045V14.3478Z" fill="#9AAABB"/>
</svg>
