<svg width="25" height="24" viewBox="0 0 25 24" fill="none" xmlns="http://www.w3.org/2000/svg">
<path fill-rule="evenodd" clip-rule="evenodd" d="M2.36192 8.91683C4.43585 5.73438 9.92056 5.63495 14.5948 8.68106C19.2691 11.7272 21.3834 16.7996 19.3095 19.9821C17.2355 23.1645 11.751 23.2637 7.07675 20.2175C2.40249 17.1714 0.287994 12.0993 2.36192 8.91683ZM7.35523 19.7902C3.02011 16.9651 1.15008 12.3882 3.09919 9.39729C3.23361 9.19102 3.50143 9.13465 3.70786 9.26918C3.91429 9.40371 3.97087 9.67148 3.83645 9.87775C2.15619 12.4561 3.91305 16.4975 7.8353 19.0535C8.04174 19.1881 8.09832 19.4558 7.9639 19.6621C7.82948 19.8684 7.56166 19.9247 7.35523 19.7902ZM8.26737 18.3905C5.2151 16.4014 3.88996 13.0192 5.31098 10.8387C6.73201 8.6581 10.3615 8.5043 13.4138 10.4934C16.466 12.4825 17.791 15.865 16.37 18.0455C14.9489 20.2261 11.3196 20.3796 8.26737 18.3905ZM18.425 17.1807C18.4295 17.0892 18.4612 17.0063 18.5115 16.9391C18.5953 16.8271 18.7316 16.7586 18.8842 16.7663C19.1284 16.7784 19.3112 16.9816 19.2992 17.2257C19.2498 18.0751 19.0138 18.8239 18.5817 19.4869C18.4473 19.6932 18.1795 19.7496 17.9731 19.615C17.7666 19.4805 17.7101 19.2127 17.8445 19.0065C18.1901 18.4761 18.3787 17.8643 18.425 17.1807Z" fill="white"/>
<path d="M9.79801 12.8182C9.62518 13.0834 9.71201 13.4337 10.0069 13.6259C10.2871 13.8084 10.6574 13.756 10.8302 13.4908C11.003 13.2256 10.9164 12.875 10.6215 12.6829C10.3265 12.4907 9.97084 12.553 9.79801 12.8182Z" fill="white"/>
<path d="M8.92431 14.1589C8.75148 14.4241 8.83831 14.7744 9.13322 14.9666C9.42812 15.1587 9.78365 15.0967 9.95648 14.8315C10.1293 14.5663 10.0427 14.2157 9.74775 14.0235C9.45285 13.8314 9.09713 13.8937 8.92431 14.1589Z" fill="white"/>
<path d="M10.8412 15.4081C10.6684 15.6733 10.7552 16.0236 11.0501 16.2157C11.345 16.4079 11.7005 16.3459 11.8734 16.0807C12.0462 15.8155 11.9595 15.4649 11.6646 15.2727C11.3845 15.0902 11.014 15.1429 10.8412 15.4081Z" fill="white"/>
<path d="M11.7149 14.0674C11.5421 14.3326 11.6289 14.6829 11.9238 14.8751C12.2187 15.0672 12.5742 15.0052 12.7471 14.74C12.9199 14.4748 12.8332 14.1242 12.5383 13.932C12.2434 13.7399 11.8877 13.8022 11.7149 14.0674Z" fill="white"/>
<path fill-rule="evenodd" clip-rule="evenodd" d="M6.77595 11.8143C5.77739 13.3465 6.79341 15.688 9.06419 17.1678C11.335 18.6476 13.8969 18.6169 14.8954 17.0846C15.894 15.5523 14.878 13.2109 12.6072 11.7311C10.3364 10.2513 7.77451 10.282 6.77595 11.8143ZM12.1271 12.4678C10.3282 11.2954 8.22369 11.2045 7.52278 12.28C6.82187 13.3556 7.74534 15.2588 9.54426 16.4311C11.3432 17.6035 13.4572 17.6797 14.1582 16.6042C14.8591 15.5286 13.926 13.6401 12.1271 12.4678Z" fill="white"/>
<path d="M4.02306 6.36781L5.8858 3.50944C7.95973 0.326994 13.4538 0.21317 18.1281 3.25928C22.8023 6.30539 24.9073 11.3922 22.8333 14.5747L20.9802 17.4184C21.0868 14.1923 18.8792 10.4235 15.0749 7.94438C11.2706 5.46521 6.93131 4.96751 4.02306 6.36781Z" fill="white"/>
<path fill-rule="evenodd" clip-rule="evenodd" d="M1.62466 8.43637C-0.718114 12.0314 1.50954 17.6391 6.59667 20.9542C11.6838 24.2694 17.7135 24.0428 20.0563 20.4478L23.5802 15.0405C25.9229 11.4455 23.6953 5.83777 18.6081 2.5226C13.521 -0.792563 7.48174 -0.551329 5.13897 3.04366L1.62466 8.43637ZM14.5948 8.68106C9.92056 5.63495 4.43585 5.73438 2.36192 8.91683C0.287994 12.0993 2.40249 17.1714 7.07675 20.2175C11.751 23.2637 17.2355 23.1645 19.3095 19.9821C21.3834 16.7996 19.2691 11.7272 14.5948 8.68106ZM5.8858 3.50944L4.02306 6.36781C6.93131 4.96751 11.2706 5.46521 15.0749 7.94438C18.8792 10.4235 21.0868 14.1923 20.9802 17.4184L22.8333 14.5747C24.9073 11.3922 22.8023 6.30539 18.1281 3.25928C13.4538 0.21317 7.95973 0.326994 5.8858 3.50944Z" fill="#DEDEDE"/>
</svg>
