<svg width="20" height="20" viewBox="0 0 20 20" fill="none" xmlns="http://www.w3.org/2000/svg">
<path d="M0.111904 4.91629L4.79031 10.4987C4.88547 10.6097 5.01234 10.6731 5.15507 10.6731C5.26608 10.6731 5.3771 10.6414 5.45639 10.5621C5.66256 10.3877 5.67842 10.0863 5.51983 9.89602L1.11102 4.63083C1.06345 4.58326 1.06345 4.51982 1.09516 4.45638L2.53833 1.5859C2.58591 1.49075 2.72864 1.47489 2.80794 1.55418L8.40617 8.40528L8.48546 8.50043C8.58062 8.61145 8.70749 8.67488 8.85022 8.67488C8.96124 8.67488 9.07225 8.64316 9.15154 8.56387C9.35771 8.38942 9.37357 8.0881 9.21498 7.89779L7.12159 5.34449C7.02643 5.24933 7.10573 5.09074 7.2326 5.09074H11.2291C11.4828 5.09074 11.7207 4.90044 11.7366 4.64669C11.7524 4.37709 11.5304 4.1392 11.2608 4.1392H8.65991L6.09075 0.9674H16.0978C16.2247 0.9674 16.304 1.12599 16.2247 1.22114L10.8485 7.80264L10.785 7.88193C10.6106 8.0881 10.6264 8.40528 10.8326 8.57973C10.9278 8.65902 11.0229 8.69074 11.1339 8.69074C11.2766 8.69074 11.4035 8.6273 11.4987 8.51629L17.1921 1.55418C17.2714 1.45903 17.3982 1.47489 17.4617 1.5859L18.9048 4.45638C18.9366 4.51982 18.9207 4.58326 18.889 4.63083L14.5119 9.86431C14.3374 10.0705 14.3692 10.3718 14.5753 10.5304C14.7815 10.7048 15.0828 10.6731 15.2414 10.467L19.8881 4.91629C20.015 4.77356 20.0308 4.5674 19.9515 4.39295L17.8899 0.269603C17.8106 0.111013 17.652 0 17.4617 0H2.53833C2.36388 0 2.18944 0.0951541 2.11014 0.269603L0.0484681 4.39295C-0.030827 4.5674 -0.0149679 4.77356 0.111904 4.91629Z" fill="#9AAABB"/>
<path d="M15.2257 14.7647C15.2257 11.8784 12.8786 9.53125 9.99226 9.53125C7.10592 9.53125 4.75879 11.8784 4.75879 14.7647C4.75879 17.6511 7.10592 19.9982 9.99226 19.9982C12.8786 19.9982 15.2257 17.6511 15.2257 14.7647ZM5.71033 14.7647C5.71033 12.4017 7.62927 10.4828 9.99226 10.4828C12.3553 10.4828 14.2742 12.4017 14.2742 14.7647C14.2742 17.1277 12.3553 19.0467 9.99226 19.0467C7.62927 19.0467 5.71033 17.1277 5.71033 14.7647Z" fill="#9AAABB"/>
</svg>
