<svg width="17" height="20" viewBox="0 0 17 20" fill="none" xmlns="http://www.w3.org/2000/svg">
<path d="M9.06707 15.9387C11.825 13.483 13.4118 9.98831 13.4118 6.19138V5.32243C13.4118 5.07686 13.2607 4.86907 13.034 4.79351L8.87817 3.2634C8.50036 3.13117 8.12256 3.39563 8.12256 3.79233V15.542C8.12256 16.0143 8.70815 16.2787 9.06707 15.9387Z" fill="#9AAABB"/>
<path d="M0 3.33884V6.19126C0 11.8772 2.92798 17.0153 7.83943 19.9244C7.93388 19.9811 8.02834 20 8.12279 20C8.21724 20 8.33058 19.9811 8.40614 19.9244C13.3176 17.0153 16.2456 11.8772 16.2456 6.19126V3.33884C16.2456 3.09327 16.0944 2.88548 15.8678 2.80992L8.50059 0.0708383C8.25502 -0.0236128 7.97166 -0.0236128 7.7072 0.0708383L0.377804 2.80992C0.151122 2.88548 0 3.11216 0 3.33884ZM1.13341 3.73554L7.72609 1.2987C7.97166 1.20425 8.25502 1.20425 8.51948 1.2987L15.1122 3.73554V6.19126C15.1122 11.3672 12.5053 16.0331 8.12279 18.7721C3.74026 16.0331 1.13341 11.3672 1.13341 6.19126V3.73554Z" fill="#9AAABB"/>
</svg>
