<svg width="24" height="24" viewBox="0 0 24 24" fill="none" xmlns="http://www.w3.org/2000/svg">
<path d="M12.9145 0.915527C10.3142 0.920172 7.79794 1.83712 5.80432 3.50657C3.81071 5.17601 2.46611 7.49209 2.00488 10.0512L0.92022 9.64529C0.816968 9.60687 0.705948 9.59402 0.596652 9.60785C0.487355 9.62168 0.383033 9.66177 0.292603 9.72469C0.202173 9.78762 0.128324 9.8715 0.0773704 9.96918C0.0264167 10.0669 -0.000126893 10.1754 9.06553e-06 10.2856V13.7215C-0.000454658 13.8112 0.0168764 13.9002 0.0510002 13.9832C0.0851241 14.0661 0.135364 14.1415 0.198812 14.205C0.262261 14.2684 0.337659 14.3187 0.420648 14.3528C0.503636 14.3869 0.592566 14.4043 0.682295 14.4038C0.763438 14.4037 0.843946 14.3895 0.92022 14.3618L2.00488 13.9559C2.37696 16.0315 3.33338 17.958 4.76188 19.5091C6.19038 21.0602 8.03169 22.1717 10.0697 22.713C12.1077 23.2544 14.2579 23.2032 16.2678 22.5655C18.2778 21.9277 20.0641 20.7299 21.4172 19.1125C22.7702 17.4952 23.6339 15.5255 23.9068 13.4345C24.1797 11.3435 23.8505 9.21811 22.9578 7.30768C22.0651 5.39725 20.646 3.78108 18.8671 2.64886C17.0882 1.51663 15.0231 0.915333 12.9145 0.915527ZM22.295 12.0035C22.2957 12.7606 22.2041 13.515 22.0221 14.2498L15.3357 12.0735C15.3357 12.049 15.3357 12.0245 15.3357 12.0035C15.3357 11.9826 15.3357 11.9581 15.3357 11.9336L22.0221 9.76075C22.2038 10.4945 22.2955 11.2476 22.295 12.0035ZM13.7297 9.72226L13.5967 9.67678V2.65098C15.1105 2.76154 16.5739 3.24213 17.8584 4.05054L13.7297 9.72226ZM12.2322 9.67678L12.1027 9.72226L7.97051 4.03655C9.25596 3.23008 10.7189 2.74965 12.2322 2.63699V9.67678ZM12.1027 14.2848C12.1447 14.2848 12.1867 14.3163 12.2322 14.3268V21.3561C10.7189 21.2434 9.25596 20.763 7.97051 19.9565L12.1027 14.2848ZM13.5967 14.3268C13.6422 14.3268 13.6842 14.2988 13.7297 14.2848L17.8584 19.9705C16.5731 20.7774 15.1101 21.2579 13.5967 21.3701V14.3268ZM21.5987 8.46266L14.9158 10.6355L14.8319 10.5235L18.9501 4.84129C20.112 5.81726 21.0207 7.05968 21.5987 8.46266ZM6.86835 4.84129L10.9971 10.5235C10.9691 10.562 10.9411 10.597 10.9166 10.6355L4.23368 8.46266C4.80653 7.06046 5.71053 5.81791 6.86835 4.84129ZM1.36458 11.2688L3.34146 12.0035L1.36458 12.7383V11.2688ZM5.53527 12.6438C5.65945 12.5891 5.76502 12.4994 5.83914 12.3857C5.91326 12.272 5.95272 12.1393 5.95272 12.0035C5.95272 11.8678 5.91326 11.735 5.83914 11.6214C5.76502 11.5077 5.65945 11.418 5.53527 11.3632L3.63537 10.6635C3.68085 10.3591 3.73684 10.0617 3.81031 9.76775L10.4932 11.9406C10.4932 11.9651 10.4932 11.9861 10.4932 12.0105C10.4932 12.035 10.4932 12.056 10.4932 12.0805L3.81031 14.2498C3.73684 13.9594 3.68085 13.6585 3.63537 13.3576L5.53527 12.6438ZM4.23368 15.5409L10.9026 13.3716L10.9866 13.4801L6.86835 19.1658C5.70967 18.1886 4.80555 16.9447 4.23368 15.5409ZM18.9501 19.1658L14.8319 13.4801L14.9158 13.3716L21.5987 15.5409C21.0216 16.9455 20.1128 18.1892 18.9501 19.1658Z" fill="white"/>
</svg>
