<svg width="20" height="19" viewBox="0 0 20 19" fill="none" xmlns="http://www.w3.org/2000/svg">
<path d="M10.762 3.91664e-08C8.59513 0.00387082 6.49828 0.767995 4.83694 2.1592C3.17559 3.5504 2.05509 5.48047 1.67073 7.61303L0.76685 7.2748C0.680806 7.24278 0.58829 7.23208 0.49721 7.24361C0.406129 7.25513 0.319194 7.28854 0.243836 7.34097C0.168477 7.39341 0.106937 7.46331 0.0644753 7.54471C0.0220139 7.62611 -0.000105744 7.71657 7.55461e-06 7.80838V10.6716C-0.000378882 10.7464 0.0140637 10.8205 0.0425002 10.8897C0.0709367 10.9588 0.112803 11.0217 0.165677 11.0746C0.218551 11.1274 0.281383 11.1693 0.35054 11.1977C0.419696 11.2262 0.493805 11.2406 0.568579 11.2402C0.636198 11.2401 0.703288 11.2283 0.76685 11.2052L1.67073 10.867C1.9808 12.5967 2.77782 14.202 3.96823 15.4946C5.15865 16.7872 6.69308 17.7135 8.39143 18.1646C10.0898 18.6157 11.8816 18.5731 13.5565 18.0416C15.2315 17.5102 16.7201 16.512 17.8476 15.1642C18.9752 13.8164 19.6949 12.1749 19.9223 10.4325C20.1497 8.69001 19.8754 6.91882 19.1315 5.3268C18.3876 3.73477 17.205 2.38796 15.7226 1.44444C14.2401 0.500923 12.5193 -0.00016175 10.762 3.91664e-08ZM18.5792 9.24002C18.5798 9.87091 18.5034 10.4995 18.3517 11.1119L12.7797 9.29833C12.7797 9.27792 12.7797 9.25751 12.7797 9.24002C12.7797 9.22252 12.7797 9.20211 12.7797 9.1817L18.3517 7.37102C18.5032 7.98247 18.5795 8.61009 18.5792 9.24002ZM11.4414 7.33895L11.3306 7.30104V1.44621C12.592 1.53834 13.8116 1.93884 14.882 2.61251L11.4414 7.33895ZM10.1935 7.30104L10.0856 7.33895L6.64209 2.60085C7.7133 1.92879 8.93239 1.52843 10.1935 1.43455V7.30104ZM10.0856 11.1411C10.1206 11.1411 10.1556 11.1673 10.1935 11.1761V17.0338C8.93239 16.9399 7.7133 16.5396 6.64209 15.8675L10.0856 11.1411ZM11.3306 11.1761C11.3685 11.1761 11.4035 11.1527 11.4414 11.1411L14.882 15.8792C13.8109 16.5516 12.5918 16.9519 11.3306 17.0455V11.1761ZM17.9989 6.28927L12.4299 8.09996L12.3599 8.00665L15.7917 3.27147C16.76 4.08478 17.5172 5.12012 17.9989 6.28927ZM5.72363 3.27147L9.16421 8.00665C9.14089 8.03872 9.11756 8.06788 9.09715 8.09996L3.52807 6.28927C4.00544 5.12078 4.75878 4.08532 5.72363 3.27147ZM1.13715 8.62771L2.78455 9.24002L1.13715 9.85232V8.62771ZM4.61273 9.7736C4.71621 9.72797 4.80419 9.65324 4.86595 9.5585C4.92772 9.46376 4.9606 9.35311 4.9606 9.24002C4.9606 9.12692 4.92772 9.01627 4.86595 8.92153C4.80419 8.82679 4.71621 8.75206 4.61273 8.70643L3.02947 8.12328C3.06738 7.86961 3.11403 7.62177 3.17526 7.37685L8.74435 9.18753C8.74435 9.20794 8.74435 9.22544 8.74435 9.24585C8.74435 9.26626 8.74435 9.28375 8.74435 9.30416L3.17526 11.1119C3.11403 10.8699 3.06738 10.6192 3.02947 10.3684L4.61273 9.7736ZM3.52807 12.1878L9.08549 10.3801L9.15547 10.4705L5.72363 15.2086C4.75806 14.3942 4.00462 13.3576 3.52807 12.1878ZM15.7917 15.2086L12.3599 10.4705L12.4299 10.3801L17.9989 12.1878C17.518 13.3583 16.7607 14.3947 15.7917 15.2086Z" fill="#9AAABB"/>
</svg>
