<svg width="20" height="20" viewBox="0 0 20 20" fill="none" xmlns="http://www.w3.org/2000/svg">
<path fill-rule="evenodd" clip-rule="evenodd" d="M7.06624 0.799363C10.5195 0.799363 13.3175 4.92408 13.3175 9.99204C13.3175 15.06 10.5036 19.1847 7.05032 19.1847C3.59707 19.1847 0.799363 15.06 0.799363 9.99204C0.799363 4.92408 3.613 0.799363 7.06624 0.799363ZM1.26306 9.99204C1.26306 5.29178 3.82083 1.59873 7.06624 1.59873C7.29007 1.59873 7.46593 1.77459 7.46593 1.99841C7.46593 2.22223 7.29007 2.39809 7.06624 2.39809C4.26847 2.39809 2.06242 5.73943 2.06242 9.99204C2.06242 10.2159 1.88656 10.3917 1.66274 10.3917C1.43892 10.3917 1.26306 10.2159 1.26306 9.99204ZM2.78185 9.99204C2.78185 6.68267 4.70013 3.99682 7.06624 3.99682C9.43236 3.99682 11.351 6.68267 11.351 9.99204C11.351 13.3014 9.43236 15.9873 7.06624 15.9873C4.70013 15.9873 2.78185 13.3014 2.78185 9.99204ZM8.74491 17.1223C8.81685 17.0803 8.89575 17.0633 8.97191 17.0683C9.09884 17.0765 9.21859 17.1463 9.28854 17.2662C9.40045 17.4581 9.33644 17.698 9.14459 17.8099C8.47312 18.1936 7.78567 18.3853 7.06624 18.3853C6.84242 18.3853 6.66656 18.2095 6.66656 17.9857C6.66656 17.7618 6.84242 17.586 7.06624 17.586C7.64179 17.586 8.20134 17.4261 8.74491 17.1223Z" fill="white"/>
<path d="M7.78567 8.39331C7.4979 8.39331 7.2742 8.63312 7.2742 8.95287C7.2742 9.25662 7.4979 9.51242 7.78567 9.51242C8.07344 9.51242 8.29745 9.27261 8.29745 8.95287C8.29745 8.63312 8.07344 8.39331 7.78567 8.39331Z" fill="white"/>
<path d="M6.33089 8.39331C6.04312 8.39331 5.81943 8.63312 5.81943 8.95287C5.81943 9.27261 6.04312 9.51242 6.33089 9.51242C6.61866 9.51242 6.84267 9.27261 6.84267 8.95287C6.84267 8.63312 6.61866 8.39331 6.33089 8.39331Z" fill="white"/>
<path d="M6.33089 10.4717C6.04312 10.4717 5.81943 10.7115 5.81943 11.0312C5.81943 11.351 6.04312 11.5908 6.33089 11.5908C6.61866 11.5908 6.84267 11.351 6.84267 11.0312C6.84267 10.7275 6.61866 10.4717 6.33089 10.4717Z" fill="white"/>
<path d="M7.78567 10.4717C7.4979 10.4717 7.2742 10.7115 7.2742 11.0312C7.2742 11.351 7.4979 11.5908 7.78567 11.5908C8.07344 11.5908 8.29745 11.351 8.29745 11.0312C8.29745 10.7115 8.07344 10.4717 7.78567 10.4717Z" fill="white"/>
<path fill-rule="evenodd" clip-rule="evenodd" d="M7.05032 5.59554C5.38764 5.59554 4.1086 7.53 4.1086 9.99204C4.1086 12.4541 5.40357 14.3885 7.06624 14.3885C8.72892 14.3885 10.008 12.4541 10.008 9.99204C10.008 7.53 8.71299 5.59554 7.05032 5.59554ZM9.2086 9.99204C9.2086 8.04159 8.23331 6.3949 7.06624 6.3949C5.89917 6.3949 4.90796 8.04159 4.90796 9.99204C4.90796 11.9425 5.89917 13.5892 7.06624 13.5892C8.23331 13.5892 9.2086 11.9425 9.2086 9.99204Z" fill="white"/>
<path d="M9.83217 0.799363H12.9338C16.387 0.799363 19.2006 4.92408 19.2006 9.99204C19.2006 15.06 16.3711 19.1847 12.9178 19.1847H9.83217C12.3422 17.6659 14.1169 14.1168 14.1169 9.99204C14.1169 5.86732 12.3422 2.31815 9.83217 0.799363Z" fill="white"/>
<path fill-rule="evenodd" clip-rule="evenodd" d="M7.06624 0C3.16535 0 0 4.47643 0 9.99204C0 15.5076 3.16535 19.9841 7.06624 19.9841H12.9338C16.8346 19.9841 20 15.5076 20 9.99204C20 4.47643 16.8187 0 12.9178 0H7.06624ZM13.3175 9.99204C13.3175 4.92408 10.5195 0.799363 7.06624 0.799363C3.613 0.799363 0.799363 4.92408 0.799363 9.99204C0.799363 15.06 3.59707 19.1847 7.05032 19.1847C10.5036 19.1847 13.3175 15.06 13.3175 9.99204ZM12.9338 0.799363H9.83217C12.3422 2.31815 14.1169 5.86732 14.1169 9.99204C14.1169 14.1168 12.3422 17.6659 9.83217 19.1847H12.9178C16.3711 19.1847 19.2006 15.06 19.2006 9.99204C19.2006 4.92408 16.387 0.799363 12.9338 0.799363Z" fill="#DEDEDE"/>
</svg>
