<svg width="20" height="13" viewBox="0 0 20 13" fill="none" xmlns="http://www.w3.org/2000/svg">
<path d="M2.34814 4.81204C2.34814 6.59488 3.79967 8.0464 5.58251 8.0464C6.16628 8.0464 6.73426 7.88863 7.22336 7.58886C7.44424 7.46264 7.52313 7.16287 7.38114 6.94199C7.25492 6.7211 6.95515 6.64222 6.73426 6.78421C6.38716 6.98932 5.97695 7.09976 5.56673 7.09976C4.30454 7.09976 3.27901 6.07423 3.27901 4.81204C3.27901 3.61295 4.20988 2.61898 5.40896 2.54009C5.67718 2.52431 5.8665 2.30343 5.85073 2.03521C5.83495 1.767 5.61407 1.57767 5.34585 1.59345C3.67345 1.68811 2.34814 3.10808 2.34814 4.81204Z" fill="#9AAABB"/>
<path d="M0.233789 12.8744C0.312676 12.9218 0.391563 12.9376 0.47045 12.9376C0.628224 12.9376 0.801776 12.8587 0.880663 12.7009C1.57487 11.4703 2.75817 10.5394 4.13081 10.1607C4.38325 10.0976 4.52524 9.8294 4.46213 9.57697C4.39902 9.32453 4.13081 9.18253 3.87837 9.24564C2.26907 9.70319 0.880663 10.7918 0.0602379 12.2276C-0.0659813 12.4642 0.0129057 12.7482 0.233789 12.8744Z" fill="#9AAABB"/>
<path d="M17.6522 4.81204C17.6522 3.12386 16.3269 1.70389 14.6387 1.59345C14.3862 1.57767 14.1496 1.767 14.1338 2.03521C14.118 2.30343 14.3074 2.52431 14.5756 2.54009C15.7747 2.61898 16.7055 3.61295 16.7055 4.81204C16.7055 6.07423 15.68 7.09976 14.4178 7.09976C14.0076 7.09976 13.5974 6.98932 13.2503 6.78421C13.0294 6.65799 12.7296 6.7211 12.6034 6.94199C12.4772 7.16287 12.5403 7.46264 12.7612 7.58886C13.2503 7.88863 13.834 8.0464 14.402 8.0464C16.2006 8.03063 17.6522 6.59488 17.6522 4.81204Z" fill="#9AAABB"/>
<path d="M16.1216 9.24564C15.8692 9.18253 15.601 9.32453 15.5379 9.57697C15.4748 9.8294 15.6168 10.0976 15.8692 10.1607C17.2261 10.5394 18.4094 11.4703 19.1193 12.7009C19.214 12.8587 19.3718 12.9376 19.5296 12.9376C19.6084 12.9376 19.6873 12.9218 19.7662 12.8744C19.9871 12.7482 20.066 12.4642 19.9398 12.2276C19.1193 10.7918 17.7309 9.70319 16.1216 9.24564Z" fill="#9AAABB"/>
<path d="M9.9999 0C7.99617 0 6.37109 1.62507 6.37109 3.6288C6.37109 5.63253 7.99617 7.2576 9.9999 7.2576C12.0036 7.2576 13.6287 5.63253 13.6287 3.6288C13.6287 1.62507 12.0036 0 9.9999 0ZM9.9999 6.31096C8.51682 6.31096 7.31774 5.11188 7.31774 3.6288C7.31774 2.14573 8.51682 0.946644 9.9999 0.946644C11.483 0.946644 12.6821 2.14573 12.6821 3.6288C12.6821 5.11188 11.483 6.31096 9.9999 6.31096Z" fill="#9AAABB"/>
<path d="M3.9258 12.8745C4.00469 12.9218 4.08357 12.9376 4.16246 12.9376C4.32023 12.9376 4.49379 12.8587 4.57267 12.7009C5.67709 10.7445 7.75971 9.52965 10.0159 9.52965C12.2563 9.52965 14.3389 10.7445 15.4591 12.7009C15.5853 12.9218 15.8693 13.0007 16.106 12.8745C16.3268 12.7482 16.4057 12.4642 16.2795 12.2276C14.9858 9.9872 12.5876 8.58301 10.0001 8.58301C7.41261 8.58301 5.01444 9.9872 3.73647 12.2276C3.61025 12.4642 3.68914 12.7482 3.9258 12.8745Z" fill="#9AAABB"/>
</svg>
