<svg width="20" height="20" viewBox="0 0 20 20" fill="none" xmlns="http://www.w3.org/2000/svg">
<path d="M16.6668 0C14.8335 0 13.3335 1.5 13.3335 3.33333C13.3335 5.16667 14.8335 6.66667 16.6668 6.66667C18.5002 6.66667 20.0002 5.16667 20.0002 3.33333C20.0002 1.5 18.5168 0 16.6668 0ZM16.6668 5.66667C15.3835 5.66667 14.3335 4.61667 14.3335 3.33333C14.3335 2.05 15.3835 1 16.6668 1C17.9502 1 19.0002 2.05 19.0002 3.33333C19.0002 4.61667 17.9668 5.66667 16.6668 5.66667Z" fill="#9AAABB"/>
<path d="M4.81667 16.1667C5.06667 16.25 5.36667 16.1334 5.46667 15.8834C5.56667 15.6167 5.43333 15.3167 5.16667 15.2334C2.4 14.2834 1 12.3667 1 9.50003C1 6.60003 2.5 3.13337 9.66667 3.13337C10.2 3.13337 10.7 3.15003 11.1833 3.18337C11.45 3.20003 11.6833 3.00003 11.7167 2.73337C11.7167 2.73337 11.7167 2.73337 11.7167 2.7167C11.75 2.45003 11.5333 2.20003 11.2667 2.18337C10.75 2.15003 10.2333 2.1167 9.66667 2.1167C3.43333 2.13337 0 4.75003 0 9.50003C0 12.7834 1.66667 15.0834 4.81667 16.1667Z" fill="#9AAABB"/>
<path d="M11.1664 16.8168C16.4331 16.4168 19.3331 13.8168 19.3331 9.50011C19.3331 9.10011 19.2998 8.71678 19.2664 8.35011C19.2164 8.03345 18.8998 7.83345 18.5998 7.95011C18.5998 7.95011 18.5998 7.95011 18.5831 7.95011C18.3664 8.03345 18.2498 8.25011 18.2664 8.48345C18.3164 8.83345 18.3331 9.16678 18.3331 9.50011C18.3331 14.2834 14.3664 15.5834 11.0498 15.8334C10.7998 15.8501 10.5664 15.9334 10.3831 16.0834C9.79977 16.5834 9.71644 17.3334 10.0831 17.9001L10.9164 19.1501C11.0164 19.3001 11.1664 19.3668 11.3331 19.3668C11.4331 19.3668 11.5331 19.3334 11.6331 19.2668C11.8498 19.1001 11.8831 18.7834 11.7331 18.5668L10.9164 17.3334C10.8164 17.1834 10.8664 17.0501 10.8998 17.0001C10.9164 16.9501 10.9998 16.8334 11.1664 16.8168Z" fill="#9AAABB"/>
<path d="M5.8335 12.1667H10.8335C11.1168 12.1667 11.3335 11.9501 11.3335 11.6667C11.3335 11.3834 11.1168 11.1667 10.8335 11.1667H5.8335C5.55016 11.1667 5.3335 11.3834 5.3335 11.6667C5.3335 11.9501 5.55016 12.1667 5.8335 12.1667Z" fill="#9AAABB"/>
<path d="M5.3335 8.33325C5.3335 8.61659 5.55016 8.83325 5.8335 8.83325H14.1668C14.4502 8.83325 14.6668 8.61659 14.6668 8.33325C14.6668 8.04992 14.4502 7.83325 14.1668 7.83325H5.8335C5.55016 7.83325 5.3335 8.04992 5.3335 8.33325Z" fill="#9AAABB"/>
</svg>
