<svg width="20" height="20" viewBox="0 0 20 20" fill="none" xmlns="http://www.w3.org/2000/svg">
<path d="M13.4023 3.99656C12.4893 3.08355 11.2835 2.58398 9.99148 2.58398C8.69949 2.58398 7.49364 3.08355 6.58063 3.99656C4.70294 5.87425 4.70294 8.94057 6.58063 10.8183C6.78735 11.025 7.11465 11.025 7.30415 10.8183C7.51086 10.6115 7.51086 10.2842 7.30415 10.0948C5.82266 8.61327 5.82266 6.21878 7.30415 4.7373C8.02766 4.01379 8.97512 3.61758 9.99148 3.61758C11.0078 3.61758 11.9553 4.01379 12.6788 4.72007C14.1603 6.20156 14.1603 8.59604 12.6788 10.0775C12.4721 10.2842 12.4721 10.6115 12.6788 10.801C12.7822 10.9044 12.92 10.9561 13.0406 10.9561C13.1612 10.9561 13.299 10.9044 13.4023 10.801C15.28 8.94057 15.28 5.87425 13.4023 3.99656Z" fill="#9AAABB"/>
<path d="M4.75437 12.6443C4.96109 12.851 5.28839 12.851 5.47788 12.6443C5.6846 12.4376 5.6846 12.1102 5.47788 11.9208C2.99726 9.44014 2.99726 5.3919 5.47788 2.91128C7.9585 0.430663 12.0067 0.430663 14.4874 2.91128C16.968 5.3919 16.968 9.44014 14.4874 11.9208C14.2806 12.1275 14.2806 12.4548 14.4874 12.6443C14.5907 12.7476 14.7285 12.7993 14.8491 12.7993C14.9697 12.7993 15.1075 12.7476 15.2109 12.6443C18.1049 9.75022 18.1049 5.0646 15.2109 2.17054C12.3168 -0.723514 7.6312 -0.723514 4.73714 2.17054C1.84309 5.0646 1.86031 9.75022 4.75437 12.6443Z" fill="#9AAABB"/>
<path d="M3.29027 14.6253C3.42808 14.6253 3.54867 14.5736 3.65202 14.4702C3.85874 14.2635 3.85874 13.9362 3.65202 13.7467C1.96382 12.0413 1.03359 9.80186 1.03359 7.40737C1.03359 5.01288 1.96382 2.77343 3.65202 1.06801C3.85874 0.861288 3.85874 0.533984 3.65202 0.344492C3.44531 0.137774 3.118 0.137774 2.92851 0.344492C1.03359 2.22218 0 4.73726 0 7.40737C0 10.0775 1.03359 12.5926 2.92851 14.4702C3.03187 14.5736 3.15245 14.6253 3.29027 14.6253Z" fill="#9AAABB"/>
<path d="M18.9493 7.40737C18.9493 9.80186 18.019 12.0413 16.3308 13.7467C16.1241 13.9535 16.1241 14.2808 16.3308 14.4702C16.4342 14.5736 16.572 14.6253 16.6926 14.6253C16.8132 14.6253 16.951 14.5736 17.0543 14.4702C18.9493 12.5753 19.9828 10.0775 19.9828 7.40737C19.9828 4.73726 18.9493 2.22218 17.0543 0.344492C16.8476 0.137774 16.5203 0.137774 16.3308 0.344492C16.1241 0.55121 16.1241 0.878514 16.3308 1.06801C18.019 2.77343 18.9493 5.01288 18.9493 7.40737Z" fill="#9AAABB"/>
<path d="M13.5917 19.9483C13.8673 19.8622 14.0051 19.5693 13.919 19.2937L10.6804 9.54351C11.5762 9.25066 12.2308 8.40656 12.2308 7.40742C12.2308 6.16711 11.2317 5.16797 9.99137 5.16797C8.75106 5.16797 7.75192 6.16711 7.75192 7.40742C7.75192 8.40656 8.40653 9.25066 9.30231 9.54351L6.04649 19.3109C5.96036 19.5866 6.09817 19.8794 6.3738 19.9656C6.42548 19.9828 6.47716 20 6.52883 20C6.75278 20 6.94227 19.8622 7.01118 19.6383L9.99137 10.7666L12.9543 19.6383C13.0232 19.8622 13.23 20 13.4367 20C13.4884 19.9828 13.54 19.9828 13.5917 19.9483ZM8.78551 7.40742C8.78551 6.73558 9.31953 6.20156 9.99137 6.20156C10.6632 6.20156 11.1972 6.73558 11.1972 7.40742C11.1972 8.07925 10.6632 8.61327 9.99137 8.61327C9.31953 8.61327 8.78551 8.07925 8.78551 7.40742Z" fill="#9AAABB"/>
</svg>
