<svg width="24" height="24" viewBox="0 0 24 24" fill="none" xmlns="http://www.w3.org/2000/svg">
<path d="M12.3545 5.73695C15.6372 5.73695 18.3467 8.48645 18.3467 11.8176C18.3467 15.2016 15.6372 17.8982 12.3545 17.8982C9.01973 17.8982 6.36233 15.2016 6.36233 11.8176C6.36233 8.48645 9.01973 5.73695 12.3545 5.73695ZM12.3545 15.7832C14.4909 15.7832 16.2103 14.0383 16.2103 11.8176C16.2103 9.6497 14.4909 7.90482 12.3545 7.90482C10.1661 7.90482 8.44657 9.6497 8.44657 11.8176C8.44657 14.0383 10.2182 15.7832 12.3545 15.7832ZM19.962 5.52545C19.962 6.31857 19.3367 6.95307 18.5551 6.95307C17.7735 6.95307 17.1483 6.31857 17.1483 5.52545C17.1483 4.73232 17.7735 4.09782 18.5551 4.09782C19.3367 4.09782 19.962 4.73232 19.962 5.52545ZM23.922 6.95307C24.0262 8.90945 24.0262 14.7786 23.922 16.735C23.8178 18.6385 23.401 20.2776 22.0462 21.7052C20.6915 23.08 19.0241 23.503 17.1483 23.6087C15.2203 23.7145 9.43658 23.7145 7.50866 23.6087C5.63285 23.503 4.01757 23.08 2.61071 21.7052C1.25596 20.2776 0.839109 18.6385 0.734897 16.735C0.630685 14.7786 0.630685 8.90945 0.734897 6.95307C0.839109 5.04957 1.25596 3.35757 2.61071 1.98282C4.01757 0.608063 5.63285 0.185063 7.50866 0.0793126C9.43658 -0.0264375 15.2203 -0.0264375 17.1483 0.0793126C19.0241 0.185063 20.6915 0.608063 22.0462 1.98282C23.401 3.35757 23.8178 5.04957 23.922 6.95307ZM21.4209 18.7971C22.0462 17.2637 21.8899 13.5625 21.8899 11.8176C21.8899 10.1256 22.0462 6.42432 21.4209 4.83807C21.0041 3.83344 20.2225 2.98744 19.2325 2.61732C17.6693 1.98282 14.0219 2.14144 12.3545 2.14144C10.635 2.14144 6.9876 1.98282 5.47653 2.61732C4.43442 3.04032 3.65283 3.83344 3.23598 4.83807C2.61071 6.42432 2.76703 10.1256 2.76703 11.8176C2.76703 13.5625 2.61071 17.2637 3.23598 18.7971C3.65283 19.8546 4.43442 20.6477 5.47653 21.0707C6.9876 21.7052 10.635 21.5466 12.3545 21.5466C14.0219 21.5466 17.6693 21.7052 19.2325 21.0707C20.2225 20.6477 21.0562 19.8546 21.4209 18.7971Z" fill="#C4CED9"/>
</svg>
