<svg width="29" height="24" viewBox="0 0 29 24" fill="none" xmlns="http://www.w3.org/2000/svg">
<path d="M25.3994 6.43418C26.5062 5.59188 27.5022 4.58112 28.2769 3.4019C27.2809 3.85113 26.1188 4.18805 24.9567 4.30036C26.1741 3.57036 27.0595 2.4473 27.5022 1.04346C26.3955 1.7173 25.1228 2.22268 23.85 2.50345C22.7433 1.32423 21.2492 0.650391 19.5891 0.650391C16.3796 0.650391 13.7788 3.2896 13.7788 6.54649C13.7788 6.99572 13.8341 7.44494 13.9448 7.89417C9.13052 7.6134 4.81427 5.25496 1.93678 1.7173C1.43875 2.5596 1.16207 3.57036 1.16207 4.69343C1.16207 6.71495 2.15812 8.51186 3.76288 9.57877C2.82216 9.52262 1.88144 9.298 1.10673 8.84878V8.90493C1.10673 11.7688 3.09884 14.1272 5.75499 14.6887C5.3123 14.801 4.75894 14.9133 4.26091 14.9133C3.87355 14.9133 3.54153 14.8572 3.15418 14.801C3.87355 17.1595 6.03167 18.8441 8.57715 18.9002C6.58504 20.4725 4.0949 21.4271 1.38341 21.4271C0.885383 21.4271 0.442692 21.371 0 21.3148C2.54548 22.9994 5.58898 23.954 8.90917 23.954C19.5891 23.954 25.3994 15.0256 25.3994 7.22033C25.3994 6.93956 25.3994 6.71495 25.3994 6.43418Z" fill="#C4CED9"/>
</svg>
