<svg width="108" height="211" viewBox="0 0 108 211" fill="none" xmlns="http://www.w3.org/2000/svg">
<path d="M94.269 183.165V196.513L104.362 196.839L103.941 183.165H94.269Z" fill="#FFB6B6"/>
<path d="M92.2736 190.591C92.1378 190.591 92.0021 190.608 91.8731 190.645C90.0506 191.164 79.5094 200.579 76.3226 203.45C75.9289 203.806 75.7185 204.312 75.749 204.842C75.7762 205.368 76.0409 205.846 76.4685 206.155C78.8849 207.896 83.8399 210.652 89.847 209.539C92.6096 209.026 95.3993 208.704 97.8632 208.422C103.134 207.815 107.295 207.333 107.295 205.469C107.295 202.303 106.426 193.964 105.333 193.615C105.235 193.584 105.119 193.662 104.987 193.845C103.317 196.184 97.5748 194.942 97.3304 194.887L97.2659 194.874L97.2286 194.82C97.1981 194.775 94.388 190.598 92.2736 190.598V190.591Z" fill="#2F2E41"/>
<path d="M75.3892 183.165V196.513L85.479 196.839L85.0582 183.165H75.3892Z" fill="#FFB6B6"/>
<path d="M71.3201 87.6181L65.9476 91.6873L64.9702 137.589L74.0861 187.723L85.9679 188.211L86.2937 140.355L101.596 96.7339L98.5013 86.4778L71.3201 87.6181Z" fill="#2F2E41"/>
<path d="M96.3868 95.4309L101.596 96.7341L105.34 187.723L91.8289 186.583L82.876 122.286L96.3868 95.4309Z" fill="#2F2E41"/>
<path d="M68.184 210.119C63.5514 210.119 59.7911 208.072 57.7819 206.691C57.1744 206.274 56.7977 205.612 56.7502 204.875C56.7027 204.132 56.9911 203.419 57.5443 202.92C62.5333 198.434 71.1604 190.832 72.9014 190.333C75.1583 189.685 78.189 194.001 78.5793 194.575C79.2106 194.704 84.3794 195.692 85.8354 193.649C86.1137 193.258 86.375 193.241 86.5447 193.296C88.1024 193.794 88.7337 203.827 88.7337 205.462C88.7337 207.618 84.6577 208.089 79.0137 208.741C76.5566 209.026 73.7737 209.345 71.0213 209.854C70.0438 210.034 69.097 210.115 68.1806 210.115L68.184 210.119Z" fill="#2F2E41"/>
<path d="M30.1119 28.2296C28.3879 24.4217 29.0361 20.4306 31.5611 19.3208C34.0861 18.211 37.5309 20.4 39.2549 24.2113C39.9642 25.7249 40.2901 27.3879 40.1984 29.0611L47.2915 45.2972L39.2889 48.5078L33.146 32.1631C31.8224 31.111 30.7805 29.7636 30.1119 28.233C30.1119 28.233 30.1119 28.2296 30.1119 28.2296Z" fill="#FFB6B6"/>
<path d="M79.1429 35.1223C83.4667 39.2017 83.1985 46.1591 78.5694 49.8889L55.8985 68.1545C53.4244 70.1467 49.7523 69.4442 48.1911 66.6748C42.235 57.0295 41.1116 56.5001 37.6465 46.6172L47.4105 43.203L52.9153 50.0959L64.9363 35.9165C68.5677 31.63 75.0533 31.2703 79.1395 35.1223L79.1429 35.1223Z" fill="#4477BB"/>
<path d="M82.4824 28.165L86.1884 35.6349L72.1753 42.4022L72.345 30.4253L82.4824 28.165Z" fill="#FFB6B6"/>
<path d="M72.2228 33.8158C79.188 33.8158 84.8343 28.1694 84.8343 21.2043C84.8343 14.2391 79.188 8.59277 72.2228 8.59277C65.2577 8.59277 59.6113 14.2391 59.6113 21.2043C59.6113 28.1694 65.2577 33.8158 72.2228 33.8158Z" fill="#FFB6B6"/>
<path d="M72.138 39.4901L85.0685 31.8506C94.5509 38.5025 102.448 40.0569 102.7 51.6367L100.952 79.2591L101.054 91.1545C101.098 96.1502 97.059 100.219 92.0666 100.219H73.6042C68.7171 100.219 65.0789 95.7124 66.1072 90.9339L69.5927 74.7487L65.8696 43.2064L72.138 39.4833V39.4901Z" fill="#4477BB"/>
<path d="M0.042705 23.6411C0.042705 22.9793 0.578932 22.4465 1.23734 22.4465H14.7143C15.3761 22.4465 15.9089 22.9827 15.9089 23.6411V23.804L49.1447 25.7487C49.2398 25.372 49.5791 25.0903 49.9898 25.0903H53.5228V22.5076C53.5228 21.9306 53.9911 21.4657 54.5647 21.4657H55.2842V19.185C55.2842 18.8219 55.5794 18.5266 55.9426 18.5266H57.9551C58.3183 18.5266 58.6135 18.8219 58.6135 19.185V21.4657H59.2753C59.2278 21.374 59.2007 21.2756 59.2007 21.1704C59.2007 20.6851 59.7708 20.288 60.4734 20.288C61.1759 20.288 61.746 20.6817 61.746 21.1704C61.746 21.296 61.7053 21.4182 61.6374 21.5268C62.0413 21.6693 62.3366 22.0528 62.3366 22.5076V35.8997C62.3366 36.4766 61.8682 36.9416 61.2947 36.9416H54.5647C53.9877 36.9416 53.5228 36.4732 53.5228 35.8997V34.1009H49.9898C49.535 34.1009 49.1651 33.7514 49.1244 33.3068L15.8546 39.4326C15.7019 39.918 15.2505 40.2709 14.7143 40.2709H1.23734C0.575539 40.2709 0.042705 39.7347 0.042705 39.0763C-0.116805 33.6122 0.236154 28.423 0.042705 23.6411Z" fill="#3F3D56"/>
<path d="M52.084 32.051C50.4041 28.2227 51.0998 24.2418 53.6384 23.1591C56.177 22.0799 59.5946 24.3063 61.2745 28.1379C61.9669 29.6583 62.2723 31.3247 62.1603 32.9979L69.0634 49.3154L61.0234 52.4344L55.0706 36.0184C53.7572 34.9527 52.7322 33.5918 52.084 32.051Z" fill="#FFB6B6"/>
<path d="M101.03 39.5174C105.306 43.6477 104.953 50.6017 100.283 54.2772L77.402 72.2747C74.9041 74.2397 71.2422 73.4931 69.7115 70.7068C63.8674 60.9936 63.3956 62.3138 60.0459 52.3902L69.0565 46.709L74.6292 54.1856L86.8131 40.1487C90.4954 35.9064 96.9844 35.6213 101.026 39.5208H101.03C101.03 39.5208 101.03 39.5174 101.03 39.5174Z" fill="#4477BB"/>
<path d="M85.1905 27.5473L82.8589 29.2171C82.8589 29.2171 82.1734 21.9373 81.2265 21.6149C80.2796 21.2925 79.0035 22.969 79.0035 22.969L78.0702 25.7011L74.9852 24.4148C74.9852 24.4148 71.4149 22.4905 70.1524 22.0595C68.8899 21.6285 69.08 17.9699 69.08 17.9699C69.08 17.9699 53.9299 20.0436 56.2037 11.3112C56.2037 11.3112 56.9877 4.88669 58.6643 6.16277C60.3408 7.43885 60.3646 4.2758 60.3646 4.2758L64.1657 3.45789C64.1657 3.45789 69.382 -3.56735 79.6721 2.40919C89.9622 8.38573 85.1871 27.5405 85.1871 27.5405V27.5473H85.1905Z" fill="#2F2E41"/>
</svg>
