<svg width="153" height="151" viewBox="0 0 153 151" fill="none" xmlns="http://www.w3.org/2000/svg">
<path d="M43.6457 18.6338C48.0231 18.6338 51.5717 15.1071 51.5717 10.7568C51.5717 6.40651 48.0231 2.87988 43.6457 2.87988C39.2683 2.87988 35.7197 6.40651 35.7197 10.7568C35.7197 15.1071 39.2683 18.6338 43.6457 18.6338Z" fill="#FFB6B6"/>
<path d="M47.8458 20.2959L37.4131 23.2582L35.9227 26.5909L32.5693 42.5134V67.6932C32.5693 67.6932 28.4707 76.5802 30.7063 84.3563C33.0959 92.6683 41.5116 82.8577 47.8458 83.9773C54.1799 85.0969 64.2401 86.2078 64.2401 86.2078L58.2785 59.1765L56.7881 26.2206L47.8458 20.2959Z" fill="#E6E6E6"/>
<path d="M45.8772 13.3363L44.2658 12.5356C44.2658 12.5356 43.8629 8.9323 43.0572 8.13157C42.2515 7.33084 42.2515 6.93047 42.2515 6.93047L43.46 5.32901C43.46 5.32901 37.4172 8.53193 36.2086 6.53011C35 4.52828 36.6115 3.72756 36.6115 3.72756L34.5972 2.12609C34.5972 2.12609 37.0143 3.72756 37.4172 2.52646C37.82 1.32536 40.2372 0.510447 40.2372 0.510447C40.2372 0.510447 45.5156 1.69736 45.0921 0.510447C44.6686 -0.676462 46.28 0.524634 46.6829 0.924999C47.0858 1.32536 50.7115 5.32901 51.1143 4.92865C51.5172 4.52828 53.5315 5.72938 53.1286 6.12974C52.7258 6.53011 52.7258 6.93047 53.1286 7.33084C53.5315 7.73121 55.9486 12.1352 53.9343 13.7367C51.9201 15.3381 49.1 17.34 49.5029 18.9414C49.9058 20.5429 49.5029 13.7367 45.8772 13.3363Z" fill="#2F2E41"/>
<path d="M6.80561 33.1683C4.77129 31.4255 4.02715 28.9697 5.1434 27.6832C6.25966 26.3967 8.81324 26.7669 10.8481 28.5106C11.6705 29.1961 12.3158 30.0673 12.73 31.0514L21.2556 38.544L17.6324 42.4451L9.61231 34.6446C8.57153 34.3824 7.6091 33.8761 6.80561 33.1683Z" fill="#FFB6B6"/>
<path d="M36.012 26.7181L41.628 26.2107L46.553 49.554C47.4914 54.002 44.5576 58.3446 40.0597 59.1651L36.012 59.9035L10.2134 37.3292L13.9826 31.0847L33.0079 42.9452L36.012 26.7181Z" fill="#E6E6E6"/>
<path d="M23.4742 130.529C23.4742 130.529 19.0199 138.75 19.338 138.433C19.6562 138.117 25.065 140.014 25.065 140.014L28.2466 131.793L23.4742 130.529Z" fill="#FFB6B6"/>
<path d="M16.8999 72.9827C16.8999 72.9827 14.6198 82.0406 14.8498 81.6563C15.0798 81.272 20.7921 81.7871 20.7921 81.7871L21.8388 73.0406L16.8999 72.9827Z" fill="#FFB6B6"/>
<path d="M56.5631 71.4596C46.4969 72.865 37.4048 71.6397 29.9965 65.8669C29.9965 65.8669 24.5877 83.89 34.4508 85.7871C44.3138 87.6843 55.2904 84.4236 56.5631 81.2616C57.8357 78.0997 56.5631 71.4596 56.5631 71.4596Z" fill="#2F2E41"/>
<path d="M37.7913 77.1511L26.8147 102.862L21.7241 132.584L28.4055 134.165L40.3567 106.814L56.5629 80.6293L37.7913 77.1511Z" fill="#2F2E41"/>
<path d="M36.3596 69.8194C36.3596 69.8194 33.8144 50.2154 29.0419 48.9506C26.7153 48.334 24.54 48.3938 22.9213 48.617C21.2899 48.8419 19.9894 50.0806 19.7041 51.6927L15.3672 76.2026H21.5L23.4741 69.5625L28.7237 78.6728L36.3596 69.8194Z" fill="#2F2E41"/>
<path d="M20.7698 79.3053L14.7059 78.6729L13.7703 82.151C13.7703 82.151 3.90721 91.0044 8.99781 91.6368C14.0884 92.2692 18.8608 88.7911 18.8608 88.7911L25.8636 84.7988C25.8636 84.7988 23.156 77.6255 21.2471 77.6255C19.3381 77.6255 20.7698 79.3053 20.7698 79.3053Z" fill="#2F2E41"/>
<path d="M23.9515 138.591L17.8876 137.959L16.9519 141.437C16.9519 141.437 7.08885 150.291 12.1795 150.923C17.2701 151.555 22.0425 148.077 22.0425 148.077L29.0452 144.085C29.0452 144.085 28.5648 136.595 26.6558 136.595C24.7469 136.595 23.9515 138.591 23.9515 138.591Z" fill="#2F2E41"/>
<path d="M54.6549 90.7249C53.9237 93.2169 52.0373 94.862 50.4415 94.3993C48.8457 93.9367 48.1452 91.5417 48.877 89.0488C49.1555 88.0491 49.6709 87.1301 50.3801 86.3689L53.6121 75.8489L58.5473 77.4614L54.8371 87.6611C55.0234 88.6822 54.961 89.7327 54.6549 90.7249Z" fill="#FFB6B6"/>
<path d="M58.0707 26.2662L55.4974 25.5449C53.0709 30.343 52.0275 35.7147 52.4826 41.0655L53.7527 55.9963L49.562 82.2397L57.7757 84.3515L64.2484 51.4173L58.0707 26.2662Z" fill="#E6E6E6"/>
<path d="M116.818 12.187C116.818 12.187 119.853 13.9554 118.858 15.7043C117.862 17.4532 116.475 19.8353 117.416 20.5855C118.358 21.3358 119.911 24.6436 119.911 24.6436C119.911 24.6436 126.544 23.723 125.921 28.843C125.298 33.9629 122.183 34.661 124.853 36.9134C127.524 39.1658 122.078 41.8596 122.078 41.8596C122.078 41.8596 118.318 40.6952 117.46 37.1147C116.602 33.5341 118.225 39.8525 117.681 40.3055C117.137 40.7586 115.024 43.7448 113.529 39.7744C112.034 35.8041 113.514 34.2647 111.539 31.9215C109.563 29.5782 108.22 25.7882 108.279 25.1256C108.338 24.4631 106.02 18.4175 109.588 16.0597C113.157 13.702 116.818 12.187 116.818 12.187Z" fill="#2F2E41"/>
<path d="M146.705 67.7389C148.467 69.1879 150.647 69.459 151.575 68.3447C152.502 67.2303 151.826 65.1528 150.064 63.7036C149.368 63.115 148.54 62.7007 147.65 62.4953L140.107 56.4497L137.328 60.0276L145.059 65.6077C145.428 66.4386 145.993 67.1694 146.705 67.7389Z" fill="#FFB6B6"/>
<path d="M124.101 34.7677C124.101 34.7677 118.182 30.8338 116.243 32.7628C114.305 34.6917 114.768 39.5097 114.768 39.5097L130.29 57.4873L142.598 65.2623L145.898 60.1265L135.551 50.9502L124.101 34.7677Z" fill="#3F3D56"/>
<path d="M115.425 26.2465L117.572 33.8326H105.785L109.667 24.4854L115.425 26.2465Z" fill="#FFB6B6"/>
<path opacity="0.1" d="M115.425 26.2465L117.572 33.8326H105.785L109.667 24.4854L115.425 26.2465Z" fill="black"/>
<path d="M89.7197 82.2576C89.5675 84.5252 90.6215 86.4412 92.0736 86.5372C93.5256 86.6332 94.8257 84.873 94.9776 82.6046C95.0508 81.6993 94.9048 80.7898 94.5517 79.9521L95.0744 70.3363L90.5286 70.1887L90.496 79.6838C90.0341 80.4679 89.7679 81.3504 89.7197 82.2576Z" fill="#FFB6B6"/>
<path d="M103.407 44.7513C103.407 44.7513 103.156 37.6793 100.448 37.2452C97.7399 36.811 94.0784 40.0023 94.0784 40.0023L88.4849 63.0292L89.3383 77.4982L95.4603 77.1545L96.8971 63.4463L103.407 44.7513Z" fill="#3F3D56"/>
<path d="M129.663 129.264C129.663 129.264 134.117 137.485 133.799 137.169C133.481 136.852 128.072 138.749 128.072 138.749L124.89 130.528L129.663 129.264Z" fill="#FFB6B6"/>
<path d="M136.237 71.7178C136.237 71.7178 138.517 80.7757 138.287 80.3914C138.057 80.0071 132.345 80.5222 132.345 80.5222L131.298 71.7757L136.237 71.7178Z" fill="#FFB6B6"/>
<path d="M118.527 31.3032H107.406L95.3011 39.5243L91.8013 68.2979L93.7102 73.9894L97.21 80.6294C97.21 80.6294 93.7102 66.0845 102.301 71.776C110.891 77.4675 111.527 78.4161 111.527 78.4161L122.981 72.7246L127.276 49.1682L124.095 36.2042L118.527 31.3032Z" fill="#3F3D56"/>
<path d="M96.5734 70.1952C106.64 71.6006 115.732 70.3753 123.14 64.6025C123.14 64.6025 128.549 82.6256 118.686 84.5227C108.823 86.4199 97.8461 83.1591 96.5734 79.9972C95.3008 76.8353 96.5734 70.1952 96.5734 70.1952Z" fill="#2F2E41"/>
<path d="M115.345 75.8867L126.321 101.597L131.412 131.319L124.731 132.9L112.779 105.55L96.5732 79.3648L115.345 75.8867Z" fill="#2F2E41"/>
<path d="M116.777 68.5545C116.777 68.5545 119.322 48.9505 124.095 47.6857C126.421 47.0692 128.597 47.1289 130.215 47.3521C131.847 47.577 133.147 48.8157 133.432 50.4279L137.769 74.9377H131.637L129.662 68.2976L124.413 77.4079L116.777 68.5545Z" fill="#2F2E41"/>
<path d="M132.367 78.0406L138.431 77.4082L139.366 80.8864C139.366 80.8864 149.229 89.7398 144.139 90.3722C139.048 91.0046 134.276 87.5264 134.276 87.5264L127.273 83.5342C127.273 83.5342 129.98 76.3608 131.889 76.3608C133.798 76.3608 132.367 78.0406 132.367 78.0406Z" fill="#2F2E41"/>
<path d="M129.185 137.327L135.249 136.695L136.185 140.173C136.185 140.173 146.048 149.026 140.957 149.659C135.866 150.291 131.094 146.813 131.094 146.813L124.091 142.821C124.091 142.821 124.572 135.331 126.481 135.331C128.39 135.331 129.185 137.327 129.185 137.327Z" fill="#2F2E41"/>
<path d="M112.624 27.8951C116.545 27.8951 119.723 24.7367 119.723 20.8406C119.723 16.9445 116.545 13.7861 112.624 13.7861C108.704 13.7861 105.526 16.9445 105.526 20.8406C105.526 24.7367 108.704 27.8951 112.624 27.8951Z" fill="#FFB6B6"/>
<path d="M115.345 12.9628C115.345 12.9628 116.528 16.2549 114.635 16.9604C112.743 17.6658 110.14 18.6064 110.376 19.7822C110.613 20.9579 109.667 24.4852 109.667 24.4852C109.667 24.4852 115.345 28.0124 111.559 31.5396C107.774 35.0669 104.934 33.6134 105.526 37.0443C106.117 40.4753 100.202 39.0644 100.202 39.0644C100.202 39.0644 98.0725 35.7723 99.7288 32.4802C101.385 29.1881 98.5457 35.0669 97.8359 35.0669C97.1261 35.0669 93.5769 36.0075 94.9965 32.0099C96.4162 28.0124 98.5458 27.7772 98.5458 24.7203C98.5458 21.6634 99.9654 17.901 100.439 17.4307C100.912 16.9604 103.041 10.8465 107.3 11.3168C111.559 11.7871 115.345 12.9628 115.345 12.9628Z" fill="#2F2E41"/>
<path d="M53.3033 129.264C53.3033 129.264 48.849 137.485 49.1671 137.169C49.4853 136.852 54.8941 138.749 54.8941 138.749L58.0757 130.528L53.3033 129.264Z" fill="#A0616A"/>
<path d="M86.3922 70.1952C76.326 71.6006 67.2339 70.3753 59.8256 64.6025C59.8256 64.6025 54.4168 82.6256 64.2799 84.5227C74.1429 86.4199 85.1195 83.1591 86.3922 79.9972C87.6648 76.8353 86.3922 70.1952 86.3922 70.1952Z" fill="#2F2E41"/>
<path d="M67.6209 75.8867L56.6443 101.597L51.5537 131.319L58.2351 132.9L70.1863 105.55L86.3925 79.3648L67.6209 75.8867Z" fill="#2F2E41"/>
<path d="M53.7806 137.327L47.7167 136.695L46.781 140.173C46.781 140.173 36.918 149.026 42.0086 149.659C47.0992 150.291 51.8716 146.813 51.8716 146.813L58.8743 142.821C58.8743 142.821 58.3939 135.331 56.4849 135.331C54.576 135.331 53.7806 137.327 53.7806 137.327Z" fill="#2F2E41"/>
<path d="M63.361 124.939C63.361 124.939 61.676 134.125 61.8805 133.726C62.085 133.328 67.8188 133.474 67.8188 133.474L68.2933 124.679L63.361 124.939Z" fill="#A0616A"/>
<path d="M60.4102 69.7749L57.9502 97.5967L62.3344 127.43L69.1807 126.885L72.0585 97.2045L79.3459 67.3281L60.4102 69.7749Z" fill="#2F2E41"/>
<path d="M66.3178 132.462L60.3534 133.719L60.543 137.315C60.543 137.315 53.9094 148.76 58.948 147.801C63.9866 146.842 67.4466 142.07 67.4466 142.07L72.8684 136.126C72.8684 136.126 70.0865 129.149 68.2707 129.734C66.4548 130.319 66.3178 132.462 66.3178 132.462Z" fill="#2F2E41"/>
<path d="M66.1476 12.187C66.1476 12.187 63.1134 13.9554 64.1085 15.7043C65.1036 17.4532 66.4909 19.8353 65.5497 20.5855C64.6086 21.3358 63.0548 24.6436 63.0548 24.6436C63.0548 24.6436 56.4225 23.723 57.0452 28.843C57.6678 33.9629 60.7835 34.661 58.113 36.9134C55.4424 39.1658 60.8885 41.8596 60.8885 41.8596C60.8885 41.8596 64.6482 40.6952 65.5059 37.1147C66.3637 33.5341 64.7413 39.8525 65.2854 40.3055C65.8295 40.7586 67.9423 43.7448 69.4373 39.7744C70.9323 35.8041 69.4519 34.2647 71.4273 31.9215C73.4027 29.5782 74.7457 25.7882 74.6869 25.1256C74.6281 24.4631 76.9465 18.4175 73.3779 16.0597C69.8093 13.702 66.1476 12.187 66.1476 12.187Z" fill="#2F2E41"/>
<path d="M67.5412 26.2465L65.3936 33.8326H77.1806L73.2992 24.4854L67.5412 26.2465Z" fill="#A0616A"/>
<path opacity="0.1" d="M67.5412 26.2465L65.3936 33.8326H77.1806L73.2992 24.4854L67.5412 26.2465Z" fill="black"/>
<path d="M93.2463 82.2576C93.3985 84.5252 92.3445 86.4412 90.8924 86.5372C89.4404 86.6332 88.1403 84.873 87.9884 82.6046C87.9152 81.6993 88.0612 80.7898 88.4142 79.9521L87.8916 70.3363L92.4373 70.1887L92.4699 79.6838C92.9318 80.4679 93.1981 81.3504 93.2463 82.2576Z" fill="#A0616A"/>
<path d="M79.5586 44.7513C79.5586 44.7513 79.81 37.6793 82.518 37.2452C85.226 36.811 88.8875 40.0023 88.8875 40.0023L94.481 63.0292L93.6276 77.4982L87.5056 77.1545L86.0688 63.4463L79.5586 44.7513Z" fill="#6699DD"/>
<path d="M64.4391 31.3032H75.5598L87.665 39.5243L91.1648 68.2979L89.2558 73.9894L85.756 80.6294C85.756 80.6294 89.2558 66.0845 80.6654 71.776C80.5795 71.8329 80.4944 71.8894 80.4101 71.9453C74.8803 75.6159 67.5837 75.239 62.465 71.0205L58.394 67.6655L60.6212 56.5987L58.8713 36.2042L64.4391 31.3032Z" fill="#6699DD"/>
<path d="M36.6124 67.3269C34.8288 68.7491 32.6447 68.9873 31.7341 67.8591C30.8236 66.7308 31.5315 64.6638 33.3159 63.2413C34.0209 62.6634 34.8549 62.2616 35.7481 62.0697L43.3819 56.1387L46.1061 59.7582L38.2913 65.2208C37.909 66.046 37.3333 66.7682 36.6124 67.3269Z" fill="#A0616A"/>
<path d="M59.7185 34.7011C59.7185 34.7011 65.6969 30.8571 67.6054 32.8151C69.5139 34.7731 68.9774 39.5836 68.9774 39.5836L53.1825 57.3246L40.757 64.9128L37.5356 59.7277L48.0223 50.7088L59.7185 34.7011Z" fill="#6699DD"/>
<path d="M70.3416 27.8951C74.2619 27.8951 77.44 24.7367 77.44 20.8406C77.44 16.9445 74.2619 13.7861 70.3416 13.7861C66.4212 13.7861 63.2432 16.9445 63.2432 20.8406C63.2432 24.7367 66.4212 27.8951 70.3416 27.8951Z" fill="#A0616A"/>
<path d="M66.8077 16.1118C66.8077 16.1118 65.762 12.6475 67.5049 12.6475C69.2479 12.6475 76.2196 12.9939 76.9168 13.6868C77.614 14.3796 85.8637 21.3333 80.9835 26.8762C76.1032 32.4191 80.9835 35.0972 80.9835 35.0972C80.9835 35.0972 84.5857 43.4797 81.0998 44.1726C77.614 44.8655 63.3153 40.9037 66.8078 34.4725C70.5978 27.4934 72.3612 16.478 66.8077 16.1118Z" fill="#2F2E41"/>
<path d="M27.8681 64.7226L27.5091 53.4684C27.5033 53.2857 27.5755 53.1079 27.7074 52.9805C27.8393 52.853 28.0203 52.7861 28.204 52.7971L37.1902 53.3327C37.3718 53.3434 37.5421 53.4297 37.6576 53.5693C37.7731 53.7088 37.8254 53.8915 37.801 54.0706L36.2809 65.2563C36.2349 65.5948 35.9303 65.8422 35.5875 65.8195L28.4804 65.3525C28.4083 65.3477 28.3397 65.3318 28.2761 65.3062C28.0414 65.2118 27.8766 64.9876 27.8681 64.7226Z" fill="#6699DD"/>
<path d="M27.5205 52.4156C27.6462 52.4025 27.8146 52.3863 28.0168 52.3694C27.9627 52.2694 27.9406 52.1511 27.9637 52.0297L28.1242 51.1867C28.1658 50.9679 28.3432 50.8002 28.5653 50.7707C29.8884 50.5948 34.4394 50.1178 37.3051 51.4099C37.4844 51.4907 37.5997 51.6682 37.6054 51.8638L37.6317 52.7631C37.6349 52.8743 37.6024 52.9774 37.5454 53.0628C37.7836 53.1265 38.0211 53.1938 38.2566 53.2672C38.4043 53.3132 38.5099 53.4427 38.5277 53.5954L38.5722 53.9785C38.6004 54.2216 38.3999 54.4306 38.1542 54.4141L27.4111 53.693C27.1666 53.6766 26.9963 53.4448 27.0551 53.2084L27.1789 52.711C27.2188 52.5508 27.3553 52.4329 27.5205 52.4156Z" fill="#3F3D56"/>
<path d="M0.824638 32.7871L0.465659 21.5329C0.459833 21.3502 0.53208 21.1723 0.663933 21.0449C0.795859 20.9174 0.976857 20.8506 1.16056 20.8615L10.1468 21.3971C10.3283 21.4079 10.4987 21.4941 10.6141 21.6337C10.7296 21.7733 10.7819 21.956 10.7576 22.135L9.23741 33.3208C9.19141 33.6592 8.88686 33.9066 8.54403 33.884L1.43698 33.4169C1.36488 33.4122 1.29621 33.3962 1.23262 33.3707C0.997903 33.2763 0.833104 33.0521 0.824638 32.7871Z" fill="#6699DD"/>
<path d="M0.477007 20.4801C0.602729 20.4669 0.771136 20.4507 0.973316 20.4339C0.919266 20.3338 0.897147 20.2156 0.920255 20.0942L1.08073 19.2512C1.12238 19.0324 1.29975 18.8647 1.52183 18.8351C2.84498 18.6593 7.39597 18.1823 10.2616 19.4743C10.4409 19.5552 10.5563 19.7327 10.562 19.9282L10.5882 20.8276C10.5914 20.9388 10.5589 21.0418 10.5019 21.1273C10.7402 21.1909 10.9776 21.2583 11.2132 21.3317C11.3608 21.3777 11.4664 21.5071 11.4842 21.6599L11.5287 22.0429C11.557 22.286 11.3564 22.495 11.1108 22.4785L0.3676 21.7575C0.123118 21.7411 -0.0471494 21.5092 0.011682 21.2728L0.135459 20.7755C0.175335 20.6153 0.311846 20.4974 0.477007 20.4801Z" fill="#3F3D56"/>
<path d="M141.77 67.5683L141.411 56.3141C141.406 56.1314 141.478 55.9536 141.61 55.8262C141.742 55.6987 141.923 55.6318 142.106 55.6428L151.093 56.1784C151.274 56.1891 151.444 56.2754 151.56 56.415C151.675 56.5545 151.728 56.7372 151.703 56.9163L150.183 68.102C150.137 68.4405 149.833 68.6879 149.49 68.6652L142.383 68.1982C142.311 68.1934 142.242 68.1775 142.178 68.1519C141.944 68.0575 141.779 67.8333 141.77 67.5683Z" fill="#6699DD"/>
<path d="M141.423 55.2613C141.549 55.2482 141.717 55.232 141.919 55.2151C141.865 55.1151 141.843 54.9968 141.866 54.8754L142.027 54.0324C142.068 53.8136 142.246 53.6459 142.468 53.6164C143.791 53.4406 148.342 52.9635 151.207 54.2556C151.387 54.3364 151.502 54.5139 151.508 54.7095L151.534 55.6088C151.537 55.72 151.505 55.8231 151.448 55.9085C151.686 55.9722 151.923 56.0395 152.159 56.1129C152.307 56.1589 152.412 56.2884 152.43 56.4411L152.475 56.8242C152.503 57.0673 152.302 57.2763 152.057 57.2598L141.313 56.5387C141.069 56.5223 140.899 56.2905 140.957 56.0541L141.081 55.5567C141.121 55.3965 141.258 55.2786 141.423 55.2613Z" fill="#3F3D56"/>
</svg>
