<svg width="91" height="99" viewBox="0 0 91 99" fill="none" xmlns="http://www.w3.org/2000/svg">
<path d="M54.5262 27.5458C54.4643 27.7754 54.4206 28.0095 54.3955 28.246L35.526 38.1559L31.1446 35.3966L26.1162 41.4646L33.3979 47.1031C33.9861 47.5586 34.7063 47.811 35.4502 47.8224C36.1941 47.8338 36.9216 47.6035 37.5236 47.1663L57.1413 32.9146C57.9872 33.2665 58.9201 33.3524 59.816 33.1611C60.7119 32.9698 61.5284 32.5103 62.1567 31.8437C62.7851 31.1771 63.1956 30.3349 63.3337 29.4293C63.4718 28.5236 63.3309 27.5974 62.9297 26.7738C62.5285 25.9502 61.8861 25.2683 61.0879 24.8187C60.2897 24.3691 59.3735 24.1732 58.4613 24.257C57.549 24.3408 56.6839 24.7003 55.9809 25.2878C55.278 25.8753 54.7706 26.6629 54.5262 27.5458Z" fill="#9E616A"/>
<path d="M77.2759 94.6943L81.0596 92.261L73.475 76.5103L67.8911 80.1013L77.2759 94.6943Z" fill="#9E616A"/>
<path d="M75.5166 94.0795L82.9674 89.2878C84.2268 88.478 85.7565 88.2015 87.2196 88.5193C88.6827 88.8371 89.9596 89.7231 90.7695 90.9824L90.8687 91.1367L78.6696 98.9821L75.5166 94.0795Z" fill="#2F2E41"/>
<path d="M22.7668 67.639L51.8089 49.0448C51.8089 49.0448 57.1449 48.5298 60.3474 54.8413L79.6896 82.625L71.4374 88.2089L49.9743 65.9226L35.2464 80.4883C35.2464 80.4883 56.9456 76.9298 56.2117 91.2392C55.6294 102.595 25.9308 98.6999 13.6962 96.6082C11.3724 96.2289 9.16058 95.3428 7.21768 94.0128C5.27479 92.6827 3.64846 90.9413 2.45413 88.9122C1.14197 86.6364 0.436619 84.0523 1.53874 81.6095C4.4777 75.0953 22.7668 67.639 22.7668 67.639Z" fill="#2F2E41"/>
<path d="M8.36939 83.1788L0 81.4851L2.38499 40.4075L12.0151 28.612L17.7526 27.5962C19.463 27.2859 21.2275 27.6296 22.6964 28.5591C24.1653 29.4886 25.2314 30.9361 25.6833 32.6146L28.2122 41.8533C32.5031 49.1185 26.4921 57.5425 25.9377 58.2912L26.25 71.032L8.36939 83.1788Z" fill="#6699DD"/>
<path d="M16.1626 30.2211L16.6936 28.3425C16.6936 28.3425 22.4564 24.095 31.2622 35.1023L27.0427 42.6239L17.87 42.257L16.1626 30.2211Z" fill="#6699DD"/>
<path d="M29.4191 15.6025C31.0516 22.2951 24.6164 22.7924 16.9827 24.6545C9.34905 26.5166 3.40767 29.0384 1.77512 22.3459C0.142581 15.6533 0.271606 3.05295 11.0708 0.418653C22.242 -2.3064 27.7866 8.91 29.4191 15.6025Z" fill="#2F2E41"/>
<path d="M14.6649 24.9272C19.9523 24.9272 24.2385 20.641 24.2385 15.3536C24.2385 10.0663 19.9523 5.78003 14.6649 5.78003C9.37756 5.78003 5.09131 10.0663 5.09131 15.3536C5.09131 20.641 9.37756 24.9272 14.6649 24.9272Z" fill="#9E616A"/>
<path d="M3.69593 17.0626L7.37462 16.1652L7.88902 11.2251L9.32203 15.6902L11.0803 15.2613L11.3804 12.3796L12.2163 14.9842L25.281 11.7973C24.644 9.18599 22.9958 6.9347 20.6989 5.53867C18.4021 4.14264 15.6447 3.71621 13.0334 4.35318L11.14 4.81507C9.84702 5.13047 8.62883 5.69746 7.55498 6.48365C6.48114 7.26983 5.57265 8.25983 4.88141 9.39712C4.19016 10.5344 3.72969 11.7967 3.52629 13.112C3.32288 14.4272 3.38053 15.7696 3.69593 17.0626Z" fill="#2F2E41"/>
<path d="M31.0603 62.6955C30.8302 62.7556 30.6052 62.8337 30.3874 62.9291L12.4265 51.4544L12.6507 46.2814L4.88807 44.9226L3.60112 54.0417C3.49715 54.7784 3.63496 55.529 3.99386 56.1807C4.35276 56.8324 4.91338 57.3501 5.59156 57.6561L27.6941 67.6283C27.8078 68.5373 28.1957 69.3901 28.806 70.0734C29.4162 70.7566 30.2201 71.2378 31.1105 71.453C32.001 71.6683 32.9359 71.6073 33.7909 71.2783C34.6458 70.9492 35.3804 70.3677 35.8968 69.611C36.4132 68.8542 36.6869 67.9583 36.6817 67.0422C36.6764 66.1261 36.3924 65.2333 35.8673 64.4825C35.3423 63.7318 34.6012 63.1587 33.7425 62.8395C32.8838 62.5203 31.9482 62.47 31.0603 62.6955Z" fill="#9E616A"/>
<path d="M13.4674 30.4871L12.1139 28.7808C12.1139 28.7808 6.6788 27.0302 3.74353 34.3684C0.808268 41.7065 3.56008 48.8612 3.56008 48.8612L16.4019 49.962L17.3191 38.0374L13.4674 30.4871Z" fill="#6699DD"/>
<path d="M72.5577 20.2249H72.3802V15.3616C72.3802 14.992 72.3074 14.626 72.1659 14.2845C72.0245 13.943 71.8172 13.6327 71.5558 13.3713C71.2944 13.1099 70.9841 12.9026 70.6426 12.7611C70.3011 12.6197 69.9351 12.5469 69.5655 12.5469H59.262C58.8924 12.5469 58.5263 12.6197 58.1848 12.7611C57.8433 12.9026 57.533 13.1099 57.2717 13.3713C57.0103 13.6326 56.803 13.9429 56.6615 14.2844C56.5201 14.6259 56.4473 14.992 56.4473 15.3616V42.0418C56.4473 42.4115 56.5201 42.7775 56.6615 43.119C56.803 43.4605 57.0103 43.7708 57.2717 44.0322C57.533 44.2935 57.8433 44.5009 58.1848 44.6423C58.5263 44.7838 58.8924 44.8566 59.262 44.8566H69.5655C69.9351 44.8566 70.3011 44.7838 70.6426 44.6423C70.9841 44.5009 71.2944 44.2935 71.5558 44.0322C71.8172 43.7708 72.0245 43.4605 72.1659 43.119C72.3074 42.7775 72.3802 42.4115 72.3802 42.0419V23.6866H72.5577V20.2249Z" fill="#3F3D56"/>
<path d="M69.6787 13.2793H68.3338C68.3956 13.4309 68.4193 13.5955 68.4025 13.7584C68.3858 13.9213 68.3293 14.0776 68.238 14.2135C68.1466 14.3494 68.0232 14.4608 67.8787 14.5378C67.7342 14.6148 67.5729 14.6551 67.4092 14.6551H61.5064C61.3427 14.6551 61.1814 14.6148 61.0369 14.5378C60.8924 14.4608 60.769 14.3494 60.6776 14.2135C60.5863 14.0776 60.5298 13.9213 60.5131 13.7584C60.4964 13.5955 60.52 13.4309 60.5818 13.2793H59.3256C58.7681 13.2793 58.2335 13.5008 57.8393 13.895C57.4451 14.2892 57.2236 14.8238 57.2236 15.3813V42.0224C57.2236 42.2984 57.278 42.5718 57.3836 42.8268C57.4893 43.0818 57.6441 43.3136 57.8393 43.5088C58.0345 43.7039 58.2662 43.8588 58.5212 43.9644C58.7763 44.07 59.0496 44.1244 59.3256 44.1244H69.6787C69.9548 44.1244 70.2281 44.07 70.4831 43.9644C70.7382 43.8588 70.9699 43.7039 71.1651 43.5088C71.3603 43.3136 71.5151 43.0818 71.6207 42.8268C71.7264 42.5718 71.7807 42.2984 71.7807 42.0224V15.3813C71.7807 15.1052 71.7264 14.8319 71.6207 14.5769C71.5151 14.3219 71.3603 14.0902 71.1651 13.895C70.9699 13.6998 70.7382 13.5449 70.4831 13.4393C70.2281 13.3337 69.9548 13.2793 69.6787 13.2793Z" fill="white"/>
</svg>
