<svg width="70" height="146" viewBox="0 0 70 146" fill="none" xmlns="http://www.w3.org/2000/svg">
<path d="M11.5074 58.2757C11.9225 58.3592 12.3508 58.3506 12.7623 58.2506C13.1737 58.1506 13.5582 57.9616 13.8887 57.6969C14.2192 57.4323 14.4877 57.0983 14.6751 56.7187C14.8626 56.339 14.9646 55.9229 14.9738 55.4996L36.8572 34.9024L31.9334 30.9746L11.9338 52.5081C11.2217 52.5397 10.5458 52.8314 10.0344 53.328C9.52291 53.8246 9.21138 54.4916 9.15881 55.2025C9.10624 55.9134 9.31628 56.6189 9.74913 57.1854C10.182 57.7518 10.8076 58.1397 11.5074 58.2757Z" fill="#FFB7B7"/>
<path d="M33.7566 38.2316L29.4992 33.2423C29.3781 33.1003 29.289 32.9339 29.238 32.7544C29.1869 32.5749 29.1752 32.3865 29.2036 32.202C29.2319 32.0176 29.2997 31.8414 29.4022 31.6855C29.5048 31.5296 29.6398 31.3977 29.798 31.2986L35.3405 27.8289C36.0704 27.2134 37.0145 26.9123 37.966 26.9918C38.9174 27.0712 39.7986 27.5247 40.4162 28.2529C41.0338 28.981 41.3375 29.9243 41.2607 30.876C41.1839 31.8277 40.7329 32.71 40.0065 33.3297L35.723 38.2424C35.6003 38.383 35.4488 38.4956 35.2787 38.5723C35.1086 38.6491 34.924 38.6883 34.7373 38.6873C34.5507 38.6863 34.3665 38.645 34.1973 38.5664C34.028 38.4878 33.8777 38.3736 33.7566 38.2316Z" fill="#CBCBCB"/>
<path d="M22.3077 139.868L16.9574 139.868L14.4121 119.23L22.3087 119.231L22.3077 139.868Z" fill="#FFB7B7"/>
<path d="M23.672 145.054L6.41992 145.053V144.835C6.42005 143.054 7.12755 141.346 8.38684 140.087C9.64612 138.828 11.3541 138.12 13.1349 138.12H13.1353L23.6724 138.121L23.672 145.054Z" fill="#2F2E41"/>
<path d="M65.0781 139.868L59.7277 139.868L57.1821 119.23L65.0791 119.231L65.0781 139.868Z" fill="#FFB7B7"/>
<path d="M66.443 145.054L49.1909 145.053V144.835C49.191 143.054 49.8985 141.346 51.1578 140.087C52.4171 138.828 54.125 138.12 55.9059 138.12H55.9063L66.4434 138.121L66.443 145.054Z" fill="#2F2E41"/>
<path d="M50.6858 49.1711L56.0791 29.245L49.0825 25.3123H39.3163L35.5178 29.3761C35.5178 29.3761 29.1716 33.7916 30.7077 38.6837L33.1856 49.8266L29.3958 67.5241L10.3009 94.0048L5.78076 120.016L23.5739 124.681L42.8146 86.7947L52.1435 128.744L69.4984 127.872L63.5182 77.0076C63.5182 77.0076 61.8134 61.5126 52.8775 51.8378L50.6858 49.1711Z" fill="#2F2E41"/>
<path d="M61.8236 66.8016C62.1244 66.5036 62.3562 66.1432 62.5026 65.746C62.6491 65.3487 62.7067 64.9241 62.6713 64.5022C62.6359 64.0802 62.5084 63.6712 62.2979 63.3039C62.0873 62.9365 61.7987 62.6198 61.4525 62.376L57.2679 34.145L51.2617 36.0415L57.2741 63.231C56.9031 63.8398 56.7683 64.5635 56.8953 65.2649C57.0223 65.9664 57.4021 66.597 57.9629 67.0371C58.5237 67.4772 59.2265 67.6963 59.938 67.6529C60.6496 67.6095 61.3205 67.3066 61.8236 66.8016Z" fill="#FFB7B7"/>
<path d="M58.302 38.5759L51.7863 39.3272C51.6009 39.3486 51.413 39.3297 51.2356 39.272C51.0581 39.2142 50.8952 39.1189 50.7579 38.9925C50.6206 38.8661 50.5122 38.7116 50.44 38.5395C50.3678 38.3674 50.3335 38.1818 50.3395 37.9953L50.5506 31.4597C50.4466 30.5105 50.7232 29.5589 51.3198 28.8134C51.9164 28.0679 52.7842 27.5894 53.7331 27.4828C54.682 27.3762 55.6344 27.6502 56.3815 28.2448C57.1286 28.8393 57.6095 29.7059 57.7187 30.6544L59.4076 36.9497C59.4559 37.13 59.4648 37.3185 59.4336 37.5025C59.4025 37.6865 59.3321 37.8616 59.2271 38.016C59.1222 38.1703 58.9853 38.3002 58.8256 38.3968C58.666 38.4935 58.4874 38.5545 58.302 38.5759Z" fill="#CBCBCB"/>
<path d="M33.2783 19.6459V11.2502C33.2783 8.26647 34.4636 5.40494 36.5734 3.29512C38.6832 1.18529 41.5448 0 44.5285 0C47.5123 0 50.3738 1.18529 52.4836 3.29512C54.5935 5.40494 55.7787 8.26647 55.7787 11.2502V19.6459C55.7783 20.0466 55.6189 20.4307 55.3356 20.714C55.0523 20.9973 54.6682 21.1567 54.2675 21.1571H34.7895C34.3889 21.1567 34.0048 20.9973 33.7215 20.714C33.4381 20.4307 33.2788 20.0466 33.2783 19.6459Z" fill="#2F2E41"/>
<path d="M42.2165 20.9616C46.7719 20.9616 50.4648 17.2687 50.4648 12.7134C50.4648 8.15796 46.7719 4.46509 42.2165 4.46509C37.6611 4.46509 33.9683 8.15796 33.9683 12.7134C33.9683 17.2687 37.6611 20.9616 42.2165 20.9616Z" fill="#FFB7B7"/>
<path d="M30.6157 11.9216C30.6184 9.56219 31.5569 7.30013 33.2252 5.63174C34.8936 3.96335 37.1557 3.02488 39.5151 3.02222H41.1944C43.5538 3.02488 45.8159 3.96336 47.4842 5.63175C49.1526 7.30014 50.091 9.5622 50.0937 11.9216V12.0896H46.5451L45.3348 8.70046L45.0928 12.0896H43.2588L42.6482 10.3796L42.526 12.0896H30.6157V11.9216Z" fill="#2F2E41"/>
<path d="M41.404 22.1012C41.2374 21.8756 41.1379 21.6076 41.1169 21.3279C41.096 21.0483 41.1545 20.7684 41.2856 20.5205C43.0651 17.136 45.5565 10.8822 42.2495 7.02541L42.0118 6.74829H51.6123V21.162L42.891 22.7007C42.8027 22.7164 42.7132 22.7243 42.6235 22.7244C42.3855 22.7243 42.1508 22.6679 41.9388 22.5595C41.7268 22.4512 41.5435 22.2942 41.404 22.1012Z" fill="#2F2E41"/>
<path d="M0.685198 46.906L7.55993 45.3138C7.89167 45.237 8.23969 45.2753 8.54677 45.4225C8.85384 45.5697 9.10169 45.817 9.2496 46.1237L16.2917 60.7268C16.3679 60.8862 16.4085 61.0603 16.4106 61.2369C16.4127 61.4136 16.3763 61.5885 16.3039 61.7497C16.2315 61.9108 16.1248 62.0542 15.9913 62.17C15.8578 62.2857 15.7007 62.3709 15.5309 62.4197L8.5443 64.4047C8.17018 64.511 7.77017 64.4775 7.41892 64.3106C7.06766 64.1436 6.78913 63.8545 6.63534 63.4973L2.14196 53.0603L2.00506 53.1361L1.14985 51.1587L1.29201 51.0861C1.14414 50.2065 -1.09733 47.3191 0.685198 46.906Z" fill="#3F3D56"/>
<path d="M6.73204 45.8557C7.39033 45.6716 8.36064 45.4185 8.70529 46.2361L15.5789 60.7457C15.6182 60.8293 15.639 60.9204 15.6401 61.0127C15.6411 61.1051 15.6222 61.1966 15.5847 61.281C15.5473 61.3654 15.4921 61.4408 15.4229 61.502C15.3537 61.5632 15.2722 61.6088 15.1839 61.6358L8.24636 63.7289C7.08469 65.0539 1.19929 48.2991 0.737902 48.1247C0.696244 48.0266 0.676519 47.9206 0.680101 47.8141C0.683682 47.7076 0.710493 47.6032 0.758646 47.5082C0.8068 47.4132 0.875123 47.3298 0.958866 47.2639C1.04261 47.198 1.13973 47.1513 1.24344 47.1269C1.53137 47.1278 2.20854 46.729 2.38565 47.1236C2.38056 47.5961 6.14633 46.3884 6.33606 46.4394C6.46344 46.4099 6.57499 46.3333 6.6484 46.2251C6.72181 46.1169 6.75168 45.985 6.73204 45.8557Z" fill="#6699DD"/>
</svg>
