<svg width="510" height="282" viewBox="0 0 510 282" fill="none" xmlns="http://www.w3.org/2000/svg">
<path d="M412.292 81.7931C414.74 83.6026 425.122 84.4219 425.122 84.4219C425.122 84.4219 421.303 74.7362 418.85 72.9217C418.275 72.4132 417.601 72.03 416.87 71.7964C416.139 71.5628 415.368 71.4841 414.604 71.5651C413.841 71.6461 413.104 71.8851 412.438 72.267C411.772 72.6488 411.193 73.1651 410.738 73.783C410.283 74.4009 409.961 75.1068 409.794 75.8558C409.626 76.6048 409.616 77.3805 409.765 78.1335C409.913 78.8865 410.217 79.6004 410.656 80.2295C411.096 80.8587 411.662 81.3895 412.317 81.7881L412.292 81.7931Z" fill="#6699DD"/>
<path opacity="0.1" d="M412.292 81.7931C414.74 83.6026 425.122 84.4219 425.122 84.4219C425.122 84.4219 421.303 74.7362 418.85 72.9217C418.275 72.4132 417.601 72.03 416.87 71.7964C416.139 71.5628 415.368 71.4841 414.604 71.5651C413.841 71.6461 413.104 71.8851 412.438 72.267C411.772 72.6488 411.193 73.1651 410.738 73.783C410.283 74.4009 409.961 75.1068 409.794 75.8558C409.626 76.6048 409.616 77.3805 409.765 78.1335C409.913 78.8865 410.217 79.6004 410.656 80.2295C411.096 80.8587 411.662 81.3895 412.317 81.7881L412.292 81.7931Z" fill="#6699DD"/>
<path d="M473.194 91.69C470.475 93.0622 460.128 92.1122 460.128 92.1122C460.128 92.1122 465.53 83.2106 468.249 81.8384C468.901 81.4471 469.626 81.1943 470.38 81.0961C471.134 80.9978 471.9 81.0561 472.63 81.2673C473.36 81.4785 474.039 81.8381 474.624 82.3236C475.209 82.809 475.688 83.41 476.03 84.0889C476.372 84.7677 476.571 85.5099 476.613 86.2691C476.656 87.0282 476.542 87.788 476.277 88.5009C476.013 89.2137 475.605 89.8645 475.077 90.4123C474.55 90.9602 473.916 91.3934 473.214 91.6849L473.194 91.69Z" fill="#6699DD"/>
<path d="M467.982 113.459C465.535 115.268 455.153 116.087 455.153 116.087C455.153 116.087 458.972 106.402 461.424 104.587C462.605 103.87 464.01 103.62 465.365 103.888C466.72 104.155 467.926 104.92 468.745 106.032C469.564 107.144 469.938 108.522 469.792 109.896C469.646 111.269 468.992 112.538 467.957 113.454L467.982 113.459Z" fill="#6699DD"/>
<path d="M445.158 95.9321C447.876 97.3042 458.223 96.3543 458.223 96.3543C458.223 96.3543 452.821 87.4527 450.102 86.0805C448.813 85.5453 447.37 85.5175 446.061 86.0029C444.752 86.4882 443.676 87.4507 443.047 88.6972C442.419 89.9436 442.285 91.3817 442.673 92.7227C443.06 94.0637 443.941 95.2085 445.137 95.927L445.158 95.9321Z" fill="#6699DD"/>
<path d="M442.946 121.501C445.393 123.31 455.776 124.13 455.776 124.13C455.776 124.13 451.956 114.444 449.504 112.63C448.929 112.121 448.255 111.738 447.524 111.504C446.793 111.271 446.021 111.192 445.258 111.273C444.495 111.354 443.757 111.593 443.092 111.975C442.426 112.357 441.847 112.873 441.392 113.491C440.937 114.109 440.615 114.815 440.447 115.564C440.28 116.313 440.27 117.088 440.419 117.841C440.567 118.594 440.871 119.308 441.31 119.937C441.75 120.567 442.315 121.097 442.971 121.496L442.946 121.501Z" fill="#6699DD"/>
<path opacity="0.1" d="M473.194 91.69C470.475 93.0622 460.128 92.1122 460.128 92.1122C460.128 92.1122 465.53 83.2106 468.249 81.8384C468.901 81.4471 469.626 81.1943 470.38 81.0961C471.134 80.9978 471.9 81.0561 472.63 81.2673C473.36 81.4785 474.039 81.8381 474.624 82.3236C475.209 82.809 475.688 83.41 476.03 84.0889C476.372 84.7677 476.571 85.5099 476.613 86.2691C476.656 87.0282 476.542 87.788 476.277 88.5009C476.013 89.2137 475.605 89.8645 475.077 90.4123C474.55 90.9602 473.916 91.3934 473.214 91.6849L473.194 91.69Z" fill="#6699DD"/>
<path opacity="0.1" d="M467.982 113.459C465.535 115.268 455.153 116.087 455.153 116.087C455.153 116.087 458.972 106.402 461.424 104.587C462.605 103.87 464.01 103.62 465.365 103.888C466.72 104.155 467.926 104.92 468.745 106.032C469.564 107.144 469.938 108.522 469.792 109.896C469.646 111.269 468.992 112.538 467.957 113.454L467.982 113.459Z" fill="#6699DD"/>
<path opacity="0.1" d="M445.158 95.9321C447.876 97.3042 458.223 96.3543 458.223 96.3543C458.223 96.3543 452.821 87.4527 450.102 86.0805C448.813 85.5453 447.37 85.5175 446.061 86.0029C444.752 86.4882 443.676 87.4507 443.047 88.6972C442.419 89.9436 442.285 91.3817 442.673 92.7227C443.06 94.0637 443.941 95.2085 445.137 95.927L445.158 95.9321Z" fill="#6699DD"/>
<path opacity="0.1" d="M442.946 121.501C445.393 123.31 455.776 124.13 455.776 124.13C455.776 124.13 451.956 114.444 449.504 112.63C448.929 112.121 448.255 111.738 447.524 111.504C446.793 111.271 446.021 111.192 445.258 111.273C444.495 111.354 443.757 111.593 443.092 111.975C442.426 112.357 441.847 112.873 441.392 113.491C440.937 114.109 440.615 114.815 440.447 115.564C440.28 116.313 440.27 117.088 440.419 117.841C440.567 118.594 440.871 119.308 441.31 119.937C441.75 120.567 442.315 121.097 442.971 121.496L442.946 121.501Z" fill="#6699DD"/>
<path opacity="0.1" d="M262.43 219.976C398.925 206.662 507.84 178.054 505.697 156.079C503.555 134.103 391.166 127.081 254.67 140.395C118.175 153.709 9.25994 182.317 11.4026 204.293C13.5453 226.269 125.934 233.29 262.43 219.976Z" fill="#6699DD"/>
<path d="M484.189 159.58C493.481 140.53 491.561 109.523 490.571 98.9981C490.355 96.6961 490.184 95.3742 490.184 95.3742C490.184 95.3742 481.993 94.0824 485.013 84.1656C486.491 79.3102 481.244 76.6261 475.516 75.1534C471.419 74.1736 467.24 73.5829 463.033 73.3892L383.688 68.4885C372.809 51.2182 351.401 53.9927 351.401 53.9927C351.401 53.9927 332.305 52.0073 318.767 51.8013C316.712 49.9907 314.46 48.4176 312.053 47.1117C310.619 46.2497 309.091 45.5533 307.5 45.0359C305.565 44.4775 303.527 44.38 301.548 44.7509C299.569 45.1218 297.704 45.951 296.103 47.172C295.322 47.7335 294.687 48.4727 294.248 49.3283C294.079 49.7174 293.953 50.1235 293.871 50.5397C293.667 51.2494 293.499 51.9691 293.369 52.6959C293.251 53.0458 293.081 53.3762 292.866 53.6761C292.323 54.4451 291.389 55.0231 291.268 55.953C291.265 56.0066 291.265 56.0602 291.268 56.1138C291.169 56.2915 291.102 56.4856 291.072 56.6868C291.036 57.1006 291.125 57.5158 291.328 57.8781C291.359 57.9384 291.394 57.9937 291.429 58.0489C290.761 59.0164 290.216 60.0632 289.806 61.1652C289.62 61.2664 289.44 61.3789 289.268 61.502L289.117 61.6126V61.9192L289.032 61.9845L288.846 66.9354L288.951 67.0158C289.104 69.3254 289.8 71.5661 290.985 73.5545C292.169 75.5429 293.808 77.2224 295.766 78.4557C295.831 78.7723 295.891 79.094 295.952 79.4308C296.228 81.0543 296.352 82.6999 296.324 84.3465H296.238C293.876 83.3412 289.836 84.819 286.363 86.543H241.377C250.151 75.2539 260.885 66.4981 260.885 66.4981V56.5762C253.217 56.1942 185.848 88.5636 171.078 95.7109L170.425 96.0276L94.5178 98.3799C80.7686 98.2945 68.7481 100.315 58.3357 103.607C40.936 109.074 25.3002 119.065 13.0277 132.559C4.06255 142.4 0.132766 150.533 0.132766 150.533L0.218195 151.216L0.132766 151.392L0.253372 151.498L2.29867 167.642L3.70575 178.75C-6.07347 185.073 6.59529 187.607 6.59529 187.607C18.656 197.951 38.0587 197.523 38.0587 197.523C42.7975 203.992 56.5919 203.128 56.5919 203.128H129.001C130.129 196.479 131.639 189.9 133.524 183.425C136.615 205.686 154.178 222.74 175.375 222.74C176.947 222.739 178.518 222.644 180.078 222.454C181.639 222.644 183.21 222.739 184.782 222.74C206.225 222.74 223.944 205.284 226.733 182.651H230.276C229.615 187.707 228.465 192.688 226.844 197.523C291.926 178.554 413.041 169.502 413.041 169.502C413.544 164.727 414.096 160.113 414.694 155.685C419.685 168.074 430.996 176.725 444.163 176.725C445.359 176.723 446.554 176.649 447.741 176.504C448.928 176.649 450.123 176.723 451.319 176.725C466.952 176.725 479.963 164.526 482.898 148.351C483.286 151.206 483.508 154.081 483.561 156.961C483.003 159.706 482.516 161.46 482.45 161.706C482.842 160.989 483.214 160.255 483.566 159.505C483.566 159.796 483.566 160.098 483.566 160.399C483.445 160.902 483.36 161.183 483.335 161.279L483.556 160.867C483.556 161.088 483.556 161.304 483.556 161.525C483.506 161.545 483.772 160.822 484.189 159.58Z" fill="url(#paint0_linear_261_2712)"/>
<path d="M476.596 91.1321H327.395V151.332H476.596V91.1321Z" fill="#6F7D95"/>
<path d="M289.459 62.9396L310.651 110.423L352.617 107.88L354.31 88.3777L355.582 65.4829L296.243 61.2407L289.459 62.9396Z" fill="#4B5C7A"/>
<path d="M289.459 62.9395C289.459 62.9395 297.499 55.3096 307.264 53.6107C317.028 51.9118 349.652 55.3046 349.652 55.3046L354.315 63.3467L353.441 67.1767L289.459 62.9395Z" fill="#6699DD"/>
<path d="M369.356 87.317H218.884V131.408H369.356V87.317Z" fill="#4B5C7A"/>
<path d="M332.335 117.314C336.31 104.019 328.385 95.2836 328.385 95.2836L315.249 86.1157C315.238 86.1468 315.224 86.1771 315.209 86.2061C313.5 84.2035 312.277 81.8331 311.636 79.2799C311.595 79.1191 311.56 78.9532 311.52 78.7773C312.721 77.8849 313.773 76.8076 314.636 75.5856C316.777 74.2737 317.731 72.1627 318.093 70.0567C319.47 68.0125 320.567 65.7929 321.355 63.4571C321.485 63.0794 321.595 62.6952 321.686 62.3061C321.939 61.5818 322.052 60.8158 322.018 60.0493C321.911 59.1957 321.627 58.374 321.184 57.6367C318.973 53.6157 314.993 50.816 310.957 48.5341C309.547 47.6867 308.045 47.0021 306.48 46.4934C304.577 45.9449 302.573 45.8493 300.627 46.2141C298.681 46.5789 296.848 47.3941 295.273 48.5944C294.506 49.1467 293.88 49.8737 293.449 50.7155C293.283 51.0981 293.158 51.4974 293.077 51.9067C292.882 52.6052 292.723 53.3131 292.6 54.0278C292.49 54.3693 292.331 54.6928 292.127 54.9878C291.59 55.7418 290.675 56.3098 290.555 57.2296C290.552 57.2831 290.552 57.3368 290.555 57.3904C290.458 57.565 290.393 57.7557 290.364 57.9534C290.326 58.3602 290.414 58.7687 290.615 59.1245C290.645 59.1848 290.68 59.2401 290.715 59.2954C290.058 60.2472 289.521 61.2771 289.117 62.3614C288.933 62.461 288.755 62.5718 288.585 62.6931L288.439 62.7987V63.1003L288.353 63.1656L288.168 68.0361L288.268 68.1165C288.416 70.3882 289.101 72.5925 290.265 74.5486C291.43 76.5047 293.041 78.1571 294.967 79.3704C295.032 79.682 295.092 79.9987 295.148 80.3304C295.451 82.0841 295.572 83.8645 295.509 85.6432C295.49 85.4897 295.49 85.3343 295.509 85.1808C291.876 83.5372 283.951 88.0809 280.76 90.0914C280.277 90.3207 279.825 90.6131 279.418 90.961L279.363 91.0012C277.167 92.7805 272.83 97.7264 269.388 110.438C264.614 128.176 265.111 132.197 261.634 136.308C258.156 140.42 254.704 169.386 254.704 169.386L261.704 171.271L262.599 168.396C270.921 175.986 294.223 179.64 294.223 179.64L294.937 177.423C298.51 178.71 304.485 176.755 304.485 176.755C313.219 173.669 316.49 165.838 322.827 155.509C329.164 145.18 332.335 117.314 332.335 117.314ZM297.108 170.758L313.239 120.712C314.701 128.482 308.249 140.721 307.676 148.723C307.319 153.87 301.329 164.099 297.108 170.758Z" fill="url(#paint1_linear_261_2712)"/>
<path d="M317.289 64.6534C317.289 64.6534 320.098 75.3544 311.761 77.2191C303.424 79.0839 308.917 72.409 308.917 72.409L316.957 64.573L317.289 64.6534Z" fill="#472727"/>
<path d="M282.433 90.1569C282.433 90.1569 276.232 92.67 271.674 109.599C267.116 126.527 267.569 130.347 264.287 134.283C261.005 138.218 257.644 165.833 257.644 165.833L264.207 167.602L269.92 149.145L285.634 100.39L282.433 90.1569Z" fill="#DDE0E4"/>
<path opacity="0.05" d="M282.433 90.1569C282.433 90.1569 276.232 92.67 271.674 109.599C267.116 126.527 267.569 130.347 264.287 134.283C261.005 138.218 257.644 165.833 257.644 165.833L264.207 167.602L269.92 149.145L285.634 100.39L282.433 90.1569Z" fill="black"/>
<path d="M316.867 88.247C316.867 88.247 290.906 101.446 294.705 92.836C296.585 88.5837 296.515 84.1757 295.967 80.7729C295.654 78.7685 295.106 76.8081 294.334 74.9323C294.334 74.9323 311.982 60.9693 310.947 72.3689C310.699 74.8225 310.869 77.3004 311.45 79.6972C312.977 85.7439 316.867 88.247 316.867 88.247Z" fill="#DB8B8B"/>
<path opacity="0.1" d="M311.449 79.7173C309.78 81.0583 307.817 81.9851 305.721 82.4219C303.624 82.8587 301.455 82.7931 299.389 82.2305C298.18 81.9055 297.022 81.4168 295.946 80.7779C295.634 78.7735 295.085 76.8131 294.313 74.9373C294.313 74.9373 311.962 60.9743 310.927 72.3739C310.684 74.8337 310.86 77.3168 311.449 79.7173Z" fill="black"/>
<path d="M316.25 71.9659C318.201 64.7179 313.908 57.2601 306.662 55.3086C299.415 53.357 291.959 57.6505 290.008 64.8986C288.056 72.1466 292.349 79.6043 299.596 81.5559C306.842 83.5075 314.299 79.2139 316.25 71.9659Z" fill="#DB8B8B"/>
<path opacity="0.1" d="M296.303 61.8037C295.93 62.0315 295.515 62.1815 295.083 62.2449C294.651 62.3082 294.21 62.2835 293.788 62.1722C293.366 62.061 292.97 61.8654 292.625 61.5974C292.28 61.3294 291.993 60.9943 291.78 60.6124C291.594 60.2718 291.514 59.8833 291.549 59.4966C291.665 58.622 292.529 58.0792 293.057 57.3554C293.876 56.1843 293.72 54.5809 294.313 53.2791C294.721 52.484 295.31 51.7955 296.032 51.2686C297.5 50.1202 299.22 49.3358 301.05 48.9794C302.88 48.623 304.768 48.7047 306.56 49.2178C308.026 49.6963 309.432 50.3423 310.751 51.1429C314.53 53.2992 318.254 55.938 320.299 59.7731C320.713 60.4768 320.977 61.259 321.073 62.0701C321.096 62.9462 320.942 63.818 320.621 64.6335C319.865 66.886 318.812 69.0277 317.49 71.0018C317.048 70.4525 316.492 70.0051 315.862 69.6899C315.543 69.5394 315.186 69.4928 314.839 69.5569C314.493 69.6209 314.175 69.7923 313.932 70.0468C313.495 70.6047 313.228 71.6703 312.565 71.419C312.133 71.2581 312.138 70.66 312.158 70.1976C312.248 68.1871 311.153 66.2921 309.681 64.935C308.208 63.5779 306.384 62.6833 304.585 61.8037C303.293 61.1704 301.57 59.7178 300.153 59.4614C298.394 59.1347 297.565 61.0246 296.303 61.8037Z" fill="black"/>
<path d="M296.489 61.1149C296.116 61.3427 295.701 61.4928 295.269 61.5561C294.837 61.6195 294.396 61.5948 293.974 61.4835C293.552 61.3722 293.156 61.1767 292.811 60.9087C292.466 60.6406 292.179 60.3056 291.966 59.9237C291.78 59.5831 291.7 59.1945 291.735 58.8079C291.851 57.9333 292.715 57.3905 293.243 56.6667C294.062 55.4956 293.906 53.8922 294.499 52.5904C294.908 51.7953 295.496 51.1068 296.218 50.5798C297.687 49.4315 299.406 48.6471 301.236 48.2907C303.066 47.9342 304.954 48.016 306.746 48.5291C308.212 49.0076 309.619 49.6536 310.937 50.4542C314.716 52.6105 318.44 55.2493 320.485 59.0843C320.899 59.7881 321.163 60.5703 321.259 61.3814C321.282 62.2575 321.128 63.1293 320.807 63.9447C320.051 66.1973 318.998 68.339 317.676 70.3131C317.234 69.7638 316.678 69.3164 316.048 69.0012C315.729 68.8507 315.372 68.8041 315.025 68.8682C314.679 68.9322 314.362 69.1036 314.118 69.3581C313.681 69.916 313.414 70.9816 312.751 70.7302C312.319 70.5694 312.324 69.9713 312.344 69.5089C312.434 67.4983 311.339 65.6034 309.867 64.2463C308.394 62.8892 306.57 61.9945 304.771 61.1149C303.479 60.4816 301.756 59.029 300.339 58.7727C298.58 58.441 297.751 60.3359 296.489 61.1149Z" fill="#472727"/>
<path d="M303.605 90.0463C303.605 90.0463 314.354 87.9403 314.821 86.2162L327.113 94.8966C327.113 94.8966 334.51 103.185 330.726 115.871C330.726 115.871 327.646 142.455 321.656 152.322C315.665 162.189 312.223 174.97 304.017 177.956C304.017 177.956 296.127 172.869 293.524 172.93C293.524 172.93 306.886 153.563 307.459 145.939C308.032 138.314 314.138 126.623 312.801 119.224L294.71 175.468C294.71 175.468 265.563 170.944 262.608 161.269C262.608 161.269 265.121 157.494 264.654 153.669C264.186 149.844 275.649 121.069 275.649 121.069L281.137 91.0616C281.137 91.0616 291.991 83.4769 296.313 85.4472C296.293 85.4171 295.509 89.1617 303.605 90.0463Z" fill="#DDE0E4"/>
<g opacity="0.1">
<path d="M307.52 66.7142C304.866 63.0953 299.806 66.0658 298.977 66.5835L297.675 66.4528C296.539 65.2164 293.057 61.9292 289.785 64.3468L289.645 64.4524L289.449 69.0916L289.589 69.2022C290.534 69.9319 291.606 70.4806 292.75 70.8207C293.475 71.0337 294.24 71.0716 294.982 70.9313C295.531 70.8046 296.045 70.5588 296.489 70.2114C296.933 69.864 297.295 69.4234 297.55 68.9208L298.228 68.966L298.73 68.8705C298.831 69.405 299.044 69.9119 299.356 70.3574C299.668 70.8029 300.072 71.1768 300.54 71.454C302.786 72.7256 306.067 71.454 306.203 71.4289L306.374 71.3635L307.58 66.875L307.52 66.7142ZM305.816 70.7955C305.148 71.0217 302.625 71.7656 300.932 70.7955C300.51 70.5312 300.155 70.1734 299.893 69.7499C299.632 69.3263 299.471 68.8483 299.424 68.3528L299.364 67.9859L298.263 68.212L297.158 68.1718L297.052 68.3829C296.85 68.8395 296.547 69.2437 296.164 69.5644C295.782 69.8851 295.331 70.1137 294.846 70.2326C292.951 70.6397 290.76 69.1721 290.187 68.7549L290.353 64.8344C293.198 62.9194 296.333 66.0256 297.238 67.0409L297.333 67.1465L299.168 67.3274L299.278 67.252C299.328 67.2219 303.886 64.1609 306.484 66.6237C306.613 66.7432 306.733 66.8726 306.841 67.0108L305.816 70.7955Z" fill="black"/>
<path d="M315.751 69.0463L307.208 68.3376L306.505 68.2019L306.821 67.0157C306.712 66.8776 306.593 66.7481 306.464 66.6287L307.5 66.7292L314.49 67.4128L315.751 69.0463Z" fill="black"/>
</g>
<path d="M307.61 66.3925C304.957 62.7736 299.896 65.7442 299.067 66.2619L297.765 66.1312C296.63 64.8947 293.147 61.6075 289.876 64.0252L289.735 64.1307L289.539 68.77L289.68 68.8806C290.625 69.6102 291.696 70.1589 292.841 70.499C293.565 70.7121 294.33 70.75 295.072 70.6096C295.621 70.4829 296.136 70.2372 296.579 69.8898C297.023 69.5424 297.385 69.1018 297.64 68.5991L298.318 68.6443L298.821 68.5488C298.921 69.0834 299.135 69.5903 299.447 70.0358C299.759 70.4813 300.162 70.8551 300.63 71.1323C302.876 72.404 306.158 71.1323 306.293 71.1072L306.464 71.0419L307.67 66.5534L307.61 66.3925ZM305.906 70.4739C305.238 70.7001 302.715 71.444 301.022 70.4739C300.6 70.2096 300.245 69.8518 299.983 69.4282C299.722 69.0046 299.562 68.5266 299.514 68.0311L299.454 67.6642L298.353 67.8904L297.263 67.82L297.157 68.0311C296.959 68.4903 296.658 68.8978 296.277 69.222C295.896 69.5462 295.446 69.7785 294.961 69.9009C293.067 70.308 290.876 68.8404 290.303 68.4232L290.469 64.5027C293.313 62.5877 296.449 65.6939 297.353 66.7092L297.449 66.8148L299.283 66.9957L299.394 66.9203C299.444 66.8902 304.002 63.8291 306.6 66.292C306.729 66.4115 306.848 66.5409 306.957 66.679L305.906 70.4739Z" fill="#472727"/>
<path d="M315.831 68.7249L307.318 68.0162L306.615 67.8805L306.932 66.6943C306.823 66.5561 306.704 66.4267 306.575 66.3073L307.61 66.4078L314.6 67.0914L315.831 68.7249Z" fill="#472727"/>
<path d="M257.453 121.657H108.252V181.857H257.453V121.657Z" fill="#6F7D95"/>
<path d="M176.535 221.283C199.53 221.283 218.17 200.879 218.17 175.709C218.17 150.54 199.53 130.136 176.535 130.136C153.541 130.136 134.901 150.54 134.901 175.709C134.901 200.879 153.541 221.283 176.535 221.283Z" fill="#4B5C7A"/>
<path opacity="0.05" d="M176.535 221.283C199.53 221.283 218.17 200.879 218.17 175.709C218.17 150.54 199.53 130.136 176.535 130.136C153.541 130.136 134.901 150.54 134.901 175.709C134.901 200.879 153.541 221.283 176.535 221.283Z" fill="black"/>
<path d="M185.787 221.283C208.782 221.283 227.422 200.879 227.422 175.709C227.422 150.54 208.782 130.136 185.787 130.136C162.793 130.136 144.153 150.54 144.153 175.709C144.153 200.879 162.793 221.283 185.787 221.283Z" fill="#4B5C7A"/>
<path opacity="0.05" d="M184.862 194.447C195.081 194.447 203.365 186.162 203.365 175.941C203.365 165.72 195.081 157.434 184.862 157.434C174.643 157.434 166.359 165.72 166.359 175.941C166.359 186.162 174.643 194.447 184.862 194.447Z" fill="black"/>
<path d="M184.862 181.495C187.929 181.495 190.415 179.008 190.415 175.941C190.415 172.873 187.929 170.386 184.862 170.386C181.795 170.386 179.309 172.873 179.309 175.941C179.309 179.008 181.795 181.495 184.862 181.495Z" stroke="#6F7D95" stroke-width="2" stroke-miterlimit="10"/>
<path d="M184.863 167.612C185.629 167.612 186.25 166.991 186.25 166.225C186.25 165.459 185.629 164.838 184.863 164.838C184.097 164.838 183.476 165.459 183.476 166.225C183.476 166.991 184.097 167.612 184.863 167.612Z" fill="#6F7D95"/>
<path d="M193.344 169.966C193.93 169.474 194.007 168.599 193.515 168.012C193.022 167.425 192.147 167.349 191.561 167.841C190.974 168.334 190.897 169.209 191.39 169.795C191.882 170.382 192.757 170.459 193.344 169.966Z" fill="#6F7D95"/>
<path d="M196.656 176.684C196.789 175.929 196.285 175.21 195.531 175.077C194.776 174.944 194.057 175.448 193.924 176.202C193.791 176.957 194.295 177.676 195.049 177.809C195.803 177.942 196.523 177.438 196.656 176.684Z" fill="#6F7D95"/>
<path d="M192.018 184.663C192.681 184.28 192.909 183.432 192.526 182.768C192.143 182.105 191.294 181.877 190.631 182.26C189.967 182.643 189.74 183.492 190.123 184.155C190.506 184.819 191.354 185.046 192.018 184.663Z" fill="#6F7D95"/>
<path d="M184.715 185.414C184.977 184.694 184.606 183.898 183.886 183.636C183.166 183.374 182.37 183.745 182.108 184.465C181.846 185.185 182.217 185.981 182.937 186.243C183.657 186.505 184.453 186.134 184.715 185.414Z" fill="#6F7D95"/>
<path d="M177.665 181.13C178.384 180.868 178.756 180.072 178.494 179.352C178.232 178.632 177.436 178.261 176.716 178.523C175.996 178.785 175.625 179.581 175.887 180.301C176.149 181.021 176.945 181.392 177.665 181.13Z" fill="#6F7D95"/>
<path d="M178.312 172.463C178.695 171.8 178.468 170.951 177.804 170.568C177.141 170.185 176.293 170.412 175.91 171.076C175.527 171.739 175.754 172.588 176.417 172.971C177.081 173.354 177.929 173.127 178.312 172.463Z" fill="#6F7D95"/>
<path d="M484.948 140.49C483.525 150.312 479.571 161.063 479.571 161.063C479.597 160.393 479.614 159.731 479.621 159.077C479.621 158.233 479.621 157.399 479.621 156.564C479.118 129.493 464.369 112.79 454.856 104.794C452.384 102.686 449.724 100.809 446.911 99.1842H472.766C472.766 99.1842 482.937 119.958 485.058 130.131C485.671 132.986 485.5 136.67 484.948 140.49Z" fill="#4477BB"/>
<path opacity="0.05" d="M484.948 140.49C483.525 150.312 479.571 161.063 479.571 161.063C479.597 160.393 479.614 159.731 479.621 159.077C479.621 158.233 479.621 157.399 479.621 156.564C479.118 129.493 464.369 112.79 454.856 104.794C452.384 102.686 449.724 100.809 446.911 99.1842H472.766C472.766 99.1842 482.937 119.958 485.058 130.131C485.671 132.986 485.5 136.67 484.948 140.49Z" fill="black"/>
<path d="M440.866 176.031C458.354 176.031 472.53 160.513 472.53 141.37C472.53 122.227 458.354 106.708 440.866 106.708C423.378 106.708 409.202 122.227 409.202 141.37C409.202 160.513 423.378 176.031 440.866 176.031Z" fill="#4B5C7A"/>
<path opacity="0.05" d="M440.866 176.031C458.354 176.031 472.53 160.513 472.53 141.37C472.53 122.227 458.354 106.708 440.866 106.708C423.378 106.708 409.202 122.227 409.202 141.37C409.202 160.513 423.378 176.031 440.866 176.031Z" fill="black"/>
<path d="M447.901 176.031C465.389 176.031 479.566 160.513 479.566 141.37C479.566 122.227 465.389 106.708 447.901 106.708C430.413 106.708 416.237 122.227 416.237 141.37C416.237 160.513 430.413 176.031 447.901 176.031Z" fill="#4B5C7A"/>
<path opacity="0.05" d="M447.198 155.619C454.969 155.619 461.269 149.318 461.269 141.546C461.269 133.773 454.969 127.472 447.198 127.472C439.427 127.472 433.127 133.773 433.127 141.546C433.127 149.318 439.427 155.619 447.198 155.619Z" fill="black"/>
<path d="M447.198 145.768C449.529 145.768 451.419 143.877 451.419 141.546C451.419 139.214 449.529 137.324 447.198 137.324C444.866 137.324 442.977 139.214 442.977 141.546C442.977 143.877 444.866 145.768 447.198 145.768Z" stroke="#6F7D95" stroke-width="2" stroke-miterlimit="10"/>
<path d="M447.198 135.213C447.781 135.213 448.253 134.74 448.253 134.157C448.253 133.574 447.781 133.102 447.198 133.102C446.615 133.102 446.143 133.574 446.143 134.157C446.143 134.74 446.615 135.213 447.198 135.213Z" fill="#6F7D95"/>
<path d="M453.652 137.002C454.098 136.628 454.157 135.962 453.782 135.515C453.407 135.069 452.742 135.01 452.295 135.385C451.849 135.76 451.791 136.426 452.165 136.872C452.54 137.319 453.205 137.377 453.652 137.002Z" fill="#6F7D95"/>
<path d="M456.167 142.115C456.268 141.541 455.885 140.994 455.311 140.893C454.737 140.791 454.189 141.175 454.088 141.749C453.987 142.323 454.37 142.87 454.944 142.972C455.518 143.073 456.065 142.69 456.167 142.115Z" fill="#6F7D95"/>
<path d="M452.644 148.183C453.148 147.891 453.321 147.246 453.03 146.741C452.738 146.236 452.093 146.063 451.588 146.355C451.083 146.646 450.911 147.292 451.202 147.796C451.493 148.301 452.139 148.474 452.644 148.183Z" fill="#6F7D95"/>
<path d="M447.088 148.752C447.288 148.204 447.005 147.599 446.458 147.399C445.91 147.2 445.304 147.482 445.105 148.03C444.906 148.578 445.188 149.184 445.736 149.383C446.283 149.582 446.889 149.3 447.088 148.752Z" fill="#6F7D95"/>
<path d="M441.724 145.489C442.272 145.29 442.554 144.684 442.355 144.136C442.156 143.589 441.55 143.306 441.002 143.506C440.455 143.705 440.172 144.311 440.372 144.858C440.571 145.406 441.177 145.689 441.724 145.489Z" fill="#6F7D95"/>
<path d="M442.223 138.9C442.514 138.395 442.341 137.75 441.836 137.458C441.332 137.167 440.686 137.34 440.395 137.844C440.103 138.349 440.276 138.995 440.781 139.286C441.286 139.578 441.931 139.405 442.223 138.9Z" fill="#6F7D95"/>
<path d="M8.01238 180.374L4.18311 150.271H49.5364L72.8487 171.045L61.4061 197.755C61.4061 197.755 15.2388 190.125 8.01238 180.374Z" fill="#6699DD"/>
<path opacity="0.05" d="M72.8636 171.045L61.421 197.755C61.421 197.755 15.2385 190.125 8.01215 180.374L7.84632 179.062L4.32861 151.226L4.29344 150.95L4.20801 150.276H49.5613L72.8636 171.045Z" fill="black"/>
<path d="M260.639 57.8529V67.6039C260.639 67.6039 237.201 86.7038 231.623 104.723C230.649 107.649 230.281 110.743 230.542 113.816C232.663 133.74 169.515 97.7013 169.515 97.7013L172.324 96.3342C186.842 89.3325 253.096 57.4709 260.639 57.8529Z" fill="#7597CE"/>
<path d="M314.048 104.914C314.048 104.914 335.998 94.1276 339.521 86.1458C339.993 85.0752 340.441 83.9946 340.963 82.9441C343.139 78.5662 347.712 68.2975 345.411 63.3667C342.446 57.0084 352.617 64.2161 352.617 64.2161L346.682 94.3085L332.269 102.351L313.621 104.914" fill="#4171B1"/>
<path opacity="0.05" d="M314.048 104.914C314.048 104.914 335.998 94.1276 339.521 86.1458C339.993 85.0752 340.441 83.9946 340.963 82.9441C343.139 78.5662 347.712 68.2975 345.411 63.3667C342.446 57.0084 352.617 64.2161 352.617 64.2161L346.682 94.3085L332.269 102.351L313.621 104.914" fill="black"/>
<path opacity="0.05" d="M72.864 171.045L61.4214 197.755C61.4214 197.755 15.239 190.125 8.01259 180.374L7.84675 179.062C8.03269 178.936 8.22867 178.806 8.43471 178.68C8.43471 178.68 22.4201 189.703 54.2151 192.251C54.2151 192.251 73.3112 176.986 42.3454 160.032C42.3454 160.032 15.4098 160.877 4.31397 151.231L4.19336 151.131L4.27879 150.955C4.3525 150.811 4.47143 150.586 4.63559 150.281H49.5466L72.864 171.045Z" fill="black"/>
<path opacity="0.05" d="M230.542 113.811C232.663 133.74 169.515 97.7014 169.515 97.7014L172.324 96.3342C174.184 98.3146 181.606 104.995 196.446 104.271C205.994 103.803 220.492 104.231 231.648 104.718C230.666 107.642 230.29 110.736 230.542 113.811Z" fill="black"/>
<path opacity="0.05" d="M257.458 121.657V181.857H229.739C231.568 167.853 230.513 147.442 212.733 135.74C206.102 131.405 198.402 128.986 190.484 128.75C182.565 128.514 174.735 130.471 167.857 134.403C156.204 141.058 143.173 154.589 134.891 181.857H108.257V121.657H257.458Z" fill="black"/>
<path opacity="0.05" d="M484.948 140.49C483.902 147.135 482.224 153.589 479.626 159.088C479.291 159.828 478.926 160.55 478.53 161.254C478.596 161.008 479.073 159.289 479.626 156.584C482.319 143.416 486.928 106.975 456.052 104.894C455.65 104.869 455.253 104.844 454.856 104.829C452.385 102.709 449.726 100.82 446.911 99.1842H472.766C472.766 99.1842 482.937 119.958 485.058 130.131C485.671 132.986 485.5 136.67 484.948 140.49Z" fill="black"/>
<path d="M479.37 160.841C479.772 159.389 494.094 106.995 456.892 104.487C419.167 101.943 414.504 130.347 410.267 168.929C410.267 168.929 291.168 177.83 227.156 196.488C227.156 196.488 242.523 154.368 213.587 135.318C206.956 130.983 199.257 128.564 191.338 128.328C183.419 128.092 175.589 130.048 168.712 133.981C154.44 142.134 138.092 160.62 130.941 201.997H59.723C59.723 201.997 46.1548 202.846 41.4963 196.468C41.4963 196.468 22.4002 196.89 10.5556 186.717C10.5556 186.717 -2.15841 184.173 8.01278 177.815C8.01278 177.815 22.4253 188.838 54.2153 191.386C54.2153 191.386 73.3114 176.121 42.3456 159.168C42.3456 159.168 15.209 160.017 4.19858 150.266C4.19858 150.266 8.06303 142.269 16.8824 132.594C28.9452 119.322 44.3154 109.492 61.4216 104.11C72.9481 100.546 84.9622 98.8123 97.0258 98.9729L171.837 96.6407C171.837 96.6407 179.064 105.969 196.421 105.12C213.778 104.271 247.709 106.392 247.709 106.392H248.046L317.857 103.23C319.862 102.947 321.845 102.527 323.792 101.974C333.913 99.2242 353.11 90.8856 349.647 67.5988L459.43 74.3842C463.568 74.5744 467.678 75.155 471.707 76.1183C477.345 77.5659 482.501 80.2097 481.049 84.9847C478.084 94.7357 486.134 96.0073 486.134 96.0073C486.134 96.0073 486.305 97.3092 486.516 99.571C487.521 110.237 489.496 142.305 479.37 160.841Z" fill="#6699DD"/>
<path opacity="0.05" d="M143.65 114.238C143.65 114.238 97.8696 114.66 67.7681 141.38H84.7234C84.7234 141.38 132.197 129.086 143.64 119.335L143.65 114.238Z" fill="black"/>
<path d="M143.223 113.811C143.223 113.811 97.4423 114.233 67.3408 140.953H84.2962C84.2962 140.953 131.77 128.658 143.213 118.907L143.223 113.811Z" fill="white"/>
<path opacity="0.05" d="M61.8432 104.537V115.932L23.2791 133.74L17.3091 133.021C29.3705 119.75 44.7389 109.92 61.8432 104.537Z" fill="black"/>
<path d="M61.4161 104.115V115.51L22.847 133.313L16.877 132.594C28.9403 119.324 44.3105 109.496 61.4161 104.115Z" fill="white"/>
<path opacity="0.05" d="M116.096 155.785C116.096 155.785 95.3267 168.502 93.2061 196.498H105.076C105.076 196.498 109.739 165.973 123.303 155.785H116.096Z" fill="black"/>
<path opacity="0.05" d="M361.522 156.635L253.855 169.351C253.855 169.351 246.734 124.014 248.051 106.377L317.862 103.215C319.865 102.937 321.846 102.522 323.792 101.974V106.181L376.351 93.4644C376.351 93.4644 385.256 106.603 361.522 156.635Z" fill="black"/>
<path d="M349.652 55.3046C349.652 55.3046 372.543 52.3391 382.714 71.8411L349.979 70.5795L349.652 55.3046Z" fill="#6699DD"/>
<path opacity="0.05" d="M381.125 78.6767C380.226 81.4964 380.904 84.5977 386.116 86.7439C390.452 88.5333 395.538 86.4624 397.02 82.0142C397.885 79.4206 397.292 76.4852 392.618 74.0977C387.945 71.7103 382.698 73.7509 381.125 78.6767Z" fill="black"/>
<path d="M5.00244 156.624C5.00244 156.624 32.1692 170.698 51.6673 165.37" stroke="#4B5C7A" stroke-miterlimit="10"/>
<path d="M5.9624 164.224C5.9624 164.224 23.5158 177.765 58.9943 174.618" stroke="#4B5C7A" stroke-miterlimit="10"/>
<path d="M6.77148 170.603C6.77148 170.603 24.1841 185.717 59.9642 180.927" stroke="#4B5C7A" stroke-miterlimit="10"/>
<path opacity="0.05" d="M381.402 69.5642C381.402 69.5642 367.24 81.7932 354.315 87.3221C354.315 87.3221 373.944 90.8154 381.402 69.5642Z" fill="black"/>
<path opacity="0.1" d="M231.376 105.557C231.376 105.557 298.575 111.906 324.003 105.97C324.003 105.97 325.36 106.869 317.264 103.24L231.376 105.557Z" fill="black"/>
<path opacity="0.05" d="M486.52 99.5712C482.334 96.8218 475.696 91.117 476.601 84.7688C477.053 81.5872 474.801 78.6116 471.711 76.1135C477.349 77.5611 482.505 80.2049 481.053 84.9799C478.088 94.7309 486.139 96.0025 486.139 96.0025C486.139 96.0025 486.304 97.3094 486.52 99.5712Z" fill="black"/>
<path d="M148.776 143.822C148.816 142.144 148.776 140.4 148.65 138.796C148.65 138.49 148.6 138.193 148.57 137.902C149.514 138.615 150.077 139.158 150.077 139.158L149.248 95.5098L144.675 72.6452C144.675 56.4304 135.946 51.8615 135.946 51.8615C135.946 51.8615 131.373 49.7806 130.127 46.8754C128.881 43.9702 117.835 37.8281 117.83 37.8281C117.742 36.7699 117.709 35.708 117.729 34.6464C117.729 34.37 117.729 34.0835 117.755 33.797C120.524 31.9605 122.532 29.1813 123.408 25.9755C124.283 22.7696 123.965 19.3551 122.514 16.3658C123.127 16.3658 123.624 16.1095 123.855 15.1997C124.589 12.3196 123.88 7.98196 122.212 5.67992C121.855 5.19844 121.453 4.75239 121.011 4.34795C120.493 3.82832 119.948 3.33673 119.378 2.87525C117.951 1.68905 116.363 0.442529 114.594 0.543055C113.59 0.67441 112.626 1.01703 111.764 1.54831C107.346 3.87381 102.938 6.21941 98.5429 8.58512C96.9197 9.46472 95.2463 10.3896 94.1106 11.9678C92.9749 13.5461 92.5176 15.5666 92.201 17.552C91.9348 18.8971 91.8721 20.2746 92.0151 21.6384C92.148 22.8794 92.7159 24.0332 93.6181 24.8954C93.8001 25.1153 94.0076 25.3128 94.2362 25.4835C95.1307 26.1369 96.2815 26.2978 97.2162 26.8255C97.9228 28.8777 99.106 30.7329 100.669 32.2388C100.669 32.4952 100.633 32.7415 100.613 33.0229C100.558 33.7417 100.473 34.5308 100.362 35.33C100.362 35.33 97.2916 35.2496 92.7186 41.4822C88.1456 47.7148 78.1704 48.5491 78.1704 48.5491C78.1704 48.5491 74.4316 46.8854 70.2756 65.5933C66.1197 84.3011 64.8734 96.7563 66.9489 98.8472C67.8302 99.608 68.8235 100.229 69.8937 100.687C73.4167 102.465 77.2075 103.654 81.1152 104.205C81.165 104.355 81.2493 104.491 81.3614 104.602L81.6579 108.226C81.9092 115.876 82.2007 131.222 80.6529 134.624C78.5724 139.198 81.07 142.109 81.07 142.109L81.5725 142.073C81.6654 142.231 81.7695 142.383 81.8841 142.526L83.8942 142.39C83.7484 150.935 83.3565 162.787 82.3213 165.39C80.6579 169.547 82.3213 192.412 82.3213 192.412L79.4116 233.567C79.4116 233.567 77.8186 255.049 79.3111 257.537C78.497 262.006 77.0347 270.52 77.3362 272.641C77.7533 275.551 87.3114 279.708 87.3114 279.708C87.3114 279.708 98.5329 282.221 103.935 281.372C106.759 280.935 107.88 279.025 107.89 277.351C111.553 277.939 116.322 278.502 119.312 278.039C124.715 277.21 123.885 270.973 120.976 271.39C118.066 271.807 114.739 265.956 112.267 263.046C111.011 261.578 109.965 258.955 109.252 256.708C109.777 256.629 110.26 256.371 110.619 255.979C111.865 253.898 113.945 234.778 113.945 234.778L119.348 201.524C119.348 201.524 122.257 185.309 124.75 181.57C126.634 178.745 128.991 157.665 130.031 147.512H130.122H130.152L130.263 147.155L131.825 142.109C132.66 143.581 134.76 144.31 137.208 144.622C136.946 145.687 136.73 146.557 136.604 147.054C135.981 149.568 145.067 153.704 147.258 151.628C148.178 150.759 148.655 147.607 148.766 144.159H148.841L148.776 143.822ZM94.1709 257.185C94.0302 257.995 93.8895 258.839 93.7488 259.699C93.4322 258.693 93.1809 257.789 93.0101 257.12C93.4221 257.135 93.8091 257.155 94.1709 257.185Z" fill="url(#paint2_linear_261_2712)"/>
<path d="M108.106 248.52C108.106 248.52 109.709 255.728 112.126 258.527C114.543 261.327 117.729 266.931 120.529 266.534C123.328 266.137 124.132 272.139 118.925 272.938C113.719 273.737 102.915 271.334 102.915 271.334C102.915 271.334 93.7085 267.313 93.3115 264.529C92.9145 261.744 95.7136 247.314 95.7136 247.314L108.106 248.52Z" fill="#53526B"/>
<path opacity="0.05" d="M108.106 248.52C108.106 248.52 109.709 255.728 112.126 258.527C114.543 261.327 117.729 266.931 120.529 266.534C123.328 266.137 124.132 272.139 118.925 272.938C113.719 273.737 102.915 271.334 102.915 271.334C102.915 271.334 93.7085 267.313 93.3115 264.529C92.9145 261.744 95.7136 247.314 95.7136 247.314L108.106 248.52Z" fill="black"/>
<path d="M93.2964 251.722C93.2964 251.722 94.8995 258.93 97.3166 261.729C99.7338 264.529 102.92 270.133 105.719 269.736C108.518 269.339 109.322 275.341 104.116 276.14C98.9096 276.939 88.1053 274.541 88.1053 274.541C88.1053 274.541 78.8989 270.52 78.5019 267.736C78.1049 264.951 80.904 250.521 80.904 250.521L93.2964 251.722Z" fill="#53526B"/>
<path d="M129.72 142.038C129.72 142.038 126.519 176.463 124.117 180.067C121.715 183.671 118.916 199.283 118.916 199.283L113.715 231.305C113.715 231.305 111.705 249.722 110.514 251.722C109.323 253.723 94.4678 252.863 94.4678 252.863L103.684 146.843L129.72 142.038Z" fill="#5F5D7E"/>
<path opacity="0.05" d="M129.72 142.038C129.72 142.038 126.519 176.463 124.117 180.067C121.715 183.671 118.916 199.283 118.916 199.283L113.715 231.305C113.715 231.305 111.705 249.722 110.514 251.722C109.323 253.723 94.4678 252.863 94.4678 252.863L103.684 146.843L129.72 142.038Z" fill="black"/>
<path d="M136.122 125.627L135.077 128.95L129.424 146.899L129.313 147.24H129.283C128.524 147.411 112.503 151.096 109.046 152.226C108.86 152.284 108.677 152.353 108.498 152.433C106.895 153.232 104.895 182.052 104.895 182.052C104.895 182.052 103.694 209.275 102.885 211.275C102.076 213.276 98.8648 254.501 96.8798 253.305C94.8948 252.109 80.4722 253.305 80.4722 253.305C78.8692 251.702 80.4722 230.089 80.4722 230.089L83.2713 190.456C83.2713 190.456 81.6683 168.441 83.2713 164.435C84.8744 160.429 84.8744 133.614 84.8744 133.614L117.654 128.538L120.82 128.035L136.122 125.627Z" fill="#5F5D7E"/>
<path opacity="0.02" d="M135.077 128.949L129.423 146.898L129.288 147.25C128.529 147.421 112.508 151.105 109.051 152.236H108.704L117.654 128.537L117.91 127.854L120.82 128.04L135.077 128.949Z" fill="black"/>
<path opacity="0.1" d="M97.699 45.5686C97.699 45.5686 112.509 61.5824 121.715 48.3683L130.519 54.3747L128.916 63.5828L134.117 133.237C134.117 133.237 120.509 132.835 110.906 136.037C108.231 136.986 105.341 137.151 102.576 136.512C99.8104 135.874 97.2851 134.458 95.2969 132.433L96.9 71.1876L93.2969 52.3742L97.699 45.5686Z" fill="black"/>
<path d="M97.6989 44.3673C97.6989 44.3673 112.508 60.3811 121.715 47.1669L130.519 53.1734L128.916 62.3815L134.122 132.056C134.122 132.056 120.514 131.654 110.91 134.856C108.236 135.805 105.346 135.97 102.581 135.331C99.8153 134.693 97.29 133.277 95.3018 131.252L96.9049 70.0064L93.3018 51.193L97.6989 44.3673Z" fill="#53526B"/>
<path d="M128.519 127.226C128.519 127.226 128.519 137.635 130.921 142.038C133.323 146.441 147.328 144.049 147.328 144.049L144.529 129.236L128.519 127.226Z" fill="#D39999"/>
<path d="M145.806 151.246C143.695 153.257 134.946 149.236 135.549 146.843C135.971 145.149 137.449 139.088 138.288 135.65L138.871 133.232C138.871 133.232 143.997 131.629 145.806 133.232C146.464 133.815 146.927 136.112 147.143 138.887C147.514 143.707 147.148 149.975 145.806 151.246Z" fill="#FDC2CC"/>
<path d="M126.514 51.5702L112.509 62.3767C112.509 62.3767 91.6988 61.1754 96.9 51.1681C99.1648 46.7668 100.531 41.9588 100.92 37.0241C101.089 35.2034 101.089 33.3711 100.92 31.5504C100.92 31.5504 120.132 13.9584 117.73 33.953C117.541 35.4877 117.43 37.0311 117.398 38.5772C117.132 53.5857 126.514 51.5702 126.514 51.5702Z" fill="#FDC2CC"/>
<path opacity="0.1" d="M117.71 33.958C117.521 35.4928 117.41 37.0362 117.378 38.5822C115.222 40.0104 112.692 40.7693 110.107 40.7636C106.524 40.7636 103.885 37.2754 101.503 34.9583C101.77 31.6359 100.905 31.5555 100.905 31.5555C100.905 31.5555 120.112 13.9383 117.71 33.958Z" fill="black"/>
<path d="M110.106 39.9593C117.4 39.9593 123.312 34.0454 123.312 26.7502C123.312 19.455 117.4 13.5411 110.106 13.5411C102.812 13.5411 96.8994 19.455 96.8994 26.7502C96.8994 34.0454 102.812 39.9593 110.106 39.9593Z" fill="#FDC2CC"/>
<path opacity="0.1" d="M100.704 39.3612C100.704 39.3612 98.5031 39.5623 94.1009 45.5637C89.6988 51.5651 80.0653 52.3692 80.0653 52.3692C80.0653 52.3692 76.4621 50.7659 72.462 68.7801C68.4619 86.7943 67.2608 98.8021 69.2609 100.803C71.261 102.803 79.2663 105.608 83.2664 105.608C83.2664 105.608 84.4674 130.825 82.4674 135.228C80.4673 139.631 82.8694 142.435 82.8694 142.435L100.458 141.234C100.458 141.234 106.463 133.629 107.664 120.42C108.865 107.211 112.865 69.5793 110.865 65.1762C108.865 60.7732 100.061 49.5646 100.458 48.3633C100.855 47.162 100.704 39.3612 100.704 39.3612Z" fill="black"/>
<path d="M100.668 39.2407C100.668 39.2407 97.7085 39.1602 93.3064 45.1667C88.9042 51.1731 79.3009 51.9723 79.3009 51.9723C79.3009 51.9723 75.6978 50.3689 71.6976 68.3831C67.6975 86.3973 66.4964 98.4051 68.5066 100.39C70.5167 102.376 78.5119 105.196 82.512 105.196C82.512 105.196 83.7131 130.413 81.713 134.816C79.713 139.219 82.115 142.023 82.115 142.023L99.7036 140.822C99.7036 140.822 105.709 133.217 106.91 120.008C108.111 106.799 112.111 69.1672 110.111 64.7642C108.111 60.3611 99.3066 49.1525 99.7036 47.9512C100.101 46.7499 100.668 39.2407 100.668 39.2407Z" fill="#D39999"/>
<path d="M90.1152 90.8002C90.1152 90.8002 110.141 67.8301 107.327 83.5925C105.317 94.8012 97.7235 100.808 94.1204 102.009C90.5173 103.21 90.1152 90.8002 90.1152 90.8002Z" fill="#FDC2CC"/>
<path opacity="0.1" d="M147.143 138.887C145.228 137.424 141.615 135.147 138.288 135.65L138.871 133.232C138.871 133.232 143.997 131.629 145.806 133.232C146.469 133.815 146.927 136.112 147.143 138.887Z" fill="black"/>
<path opacity="0.1" d="M117.509 41.7638C117.509 41.7638 127.715 48.3683 128.916 51.173C130.117 53.9777 134.519 55.9782 134.519 55.9782C134.519 55.9782 142.922 60.3812 142.922 75.9928L147.324 98.008L127.303 126.025C127.303 126.025 124.901 98.003 123.7 91.1974C122.499 84.3918 120.901 71.5948 120.901 71.5948C120.901 71.5948 114.896 63.9901 115.7 61.9896C116.504 59.9891 117.509 41.7638 117.509 41.7638Z" fill="black"/>
<path d="M117.474 41.6431C117.474 41.6431 128.117 47.5691 129.313 50.3687C130.509 53.1684 134.921 55.1537 134.921 55.1537C134.921 55.1537 143.324 59.5568 143.324 75.1684L147.726 97.1836L148.525 139.213C148.525 139.213 141.319 132.408 136.117 135.61C130.916 138.811 127.715 125.2 127.715 125.2C127.715 125.2 125.313 97.1786 124.112 90.373C122.911 83.5674 121.313 70.7704 121.313 70.7704C121.313 70.7704 115.308 63.1958 116.112 61.1853C116.916 59.1748 117.474 41.6431 117.474 41.6431Z" fill="#D39999"/>
<path opacity="0.1" d="M121.699 10.6863C121.022 9.82412 120.238 9.0507 119.368 8.38424C117.991 7.23825 116.468 6.042 114.76 6.14252C113.793 6.27124 112.865 6.60359 112.036 7.11762C107.781 9.35934 103.538 11.6245 99.3068 13.9132C97.7439 14.7576 96.1308 15.6523 95.0403 17.1702C93.9498 18.6881 93.5076 20.6383 93.2011 22.5483C92.9445 23.8421 92.8835 25.167 93.0201 26.4789C93.1447 27.765 93.7691 28.9508 94.7589 29.7812C95.8996 30.6105 97.4625 30.6155 98.4173 31.7012C98.9701 32.3295 99.2113 33.2091 99.6033 33.9731C99.9952 34.7371 100.674 35.481 101.448 35.3453C102.221 35.2096 102.689 34.3903 102.799 33.5609C102.849 32.7204 102.8 31.877 102.654 31.0478C102.503 29.5399 102.694 27.9415 103.568 26.8207C104.171 26.0567 105.036 25.5943 105.619 24.8102C107.016 22.9203 106.377 19.7839 107.91 18.0096C108.355 17.5458 108.915 17.2084 109.533 17.0318C110.151 16.8552 110.805 16.8457 111.428 17.0043C112.669 17.2657 113.805 17.9392 114.945 18.5122C116.487 19.2898 118.101 19.9128 119.765 20.3719C121.162 20.7539 122.78 21.6687 123.257 19.809C123.986 17.0797 123.282 12.9029 121.699 10.6863Z" fill="black"/>
<path d="M121.298 10.2842C120.62 9.42202 119.837 8.6486 118.966 7.98214C117.589 6.83615 116.066 5.6399 114.358 5.74042C113.391 5.86914 112.463 6.20149 111.634 6.71552C107.383 8.95725 103.85 6.83615 98.9049 13.5111C97.8496 14.9385 95.7289 15.2502 94.6384 16.7681C93.548 18.286 93.1057 20.2362 92.7992 22.1462C92.5427 23.44 92.4817 24.7649 92.6183 26.0768C92.7429 27.3629 93.3672 28.5487 94.357 29.3791C95.4978 30.2084 97.0606 30.2134 98.0154 31.2991C98.5682 31.9274 98.8094 32.807 99.2014 33.571C99.5934 34.335 100.272 35.0789 101.046 34.9432C101.82 34.8075 102.287 33.9882 102.398 33.1588C102.447 32.3183 102.398 31.4749 102.252 30.6457C102.101 29.1378 102.292 27.5394 103.166 26.4186C103.769 25.6546 104.634 25.1922 105.217 24.4081C106.614 22.5182 105.976 19.3818 107.508 17.6075C107.953 17.1437 108.513 16.8063 109.131 16.6297C109.749 16.4531 110.403 16.4436 111.026 16.6022C112.267 16.8636 113.403 17.5371 114.544 18.1101C116.085 18.8877 117.699 19.5107 119.363 19.9698C120.76 20.3518 122.378 21.2666 122.855 19.4069C123.589 16.6776 122.906 12.5008 121.298 10.2842Z" fill="#865A61"/>
<path d="M85.2913 69.5842C85.2913 69.5842 84.8893 84.3967 82.8892 86.3972C80.8892 88.3976 84.0903 90.8002 84.0903 90.8002L92.0956 88.7897C92.0956 88.7897 90.0855 101.999 98.4978 100.4C98.4978 100.4 92.8946 105.603 87.2914 106.407C81.6882 107.211 82.0751 105.211 82.0751 105.211L73.6729 95.2032L85.2913 69.5842Z" fill="#D39999"/>
<path opacity="0.1" d="M85.2261 71.3838C85.2261 71.3838 79.8893 84.995 83.8944 90.5993L92.6988 88.5888C92.6988 88.5888 84.6935 90.9913 85.8945 86.1862C87.0955 81.3811 85.2261 71.3838 85.2261 71.3838Z" fill="black"/>
<path opacity="0.1" d="M82.2915 105.01C82.2915 105.01 93.8999 105.809 97.101 103.406C92.8883 106.634 87.91 108.712 82.6533 109.438L82.2915 105.01Z" fill="black"/>
<path opacity="0.1" d="M132.328 79.3906C132.328 79.3906 138.333 97.8069 137.931 100.607C137.529 103.406 136.73 134.232 136.73 134.232L135.529 133.83L135.931 100.204L132.328 79.3906Z" fill="black"/>
<defs>
<linearGradient id="paint0_linear_261_2712" x1="245.719" y1="222.76" x2="245.719" y2="44.5383" gradientUnits="userSpaceOnUse">
<stop stop-color="#808080" stop-opacity="0.25"/>
<stop offset="0.54" stop-color="#808080" stop-opacity="0.12"/>
<stop offset="1" stop-color="#808080" stop-opacity="0.1"/>
</linearGradient>
<linearGradient id="paint1_linear_261_2712" x1="284.066" y1="177.568" x2="318.49" y2="49.7467" gradientUnits="userSpaceOnUse">
<stop stop-color="#808080" stop-opacity="0.25"/>
<stop offset="0.54" stop-color="#808080" stop-opacity="0.12"/>
<stop offset="1" stop-color="#808080" stop-opacity="0.1"/>
</linearGradient>
<linearGradient id="paint2_linear_261_2712" x1="108.031" y1="281.508" x2="108.031" y2="0.532999" gradientUnits="userSpaceOnUse">
<stop stop-color="#808080" stop-opacity="0.25"/>
<stop offset="0.54" stop-color="#808080" stop-opacity="0.12"/>
<stop offset="1" stop-color="#808080" stop-opacity="0.1"/>
</linearGradient>
</defs>
</svg>
