<svg width="222" height="175" viewBox="0 0 222 175" fill="none" xmlns="http://www.w3.org/2000/svg">
<rect y="81" width="165" height="93" rx="12" fill="white"/>
<path d="M97 81H73V174H97V81Z" fill="#6699DD"/>
<path d="M165 115H0V140H165V115Z" fill="#6699DD"/>
<path opacity="0.2" d="M77.965 142.706C78.6362 142.878 79.3339 142.98 80.0529 143.005L107.812 173.411L120.607 147.277L89.8162 135.759C90.0224 134.972 90.1433 134.15 90.1433 133.298C90.1433 132.846 90.1016 132.405 90.0417 131.969L120.607 120.535L107.812 94.4016L81.144 123.612C80.8959 123.593 80.6479 123.574 80.3951 123.574C79.5545 123.574 78.7432 123.692 77.965 123.891C72.3553 105.986 55.4152 98.6559 55.4152 98.6559L37.1372 121.143C50.5822 119.802 64.3468 127.992 70.6913 132.42C70.6652 132.71 70.6468 133.002 70.6468 133.298C70.6468 133.595 70.6652 133.887 70.6913 134.177C64.3468 138.605 50.5822 146.795 37.1372 145.454L55.4152 167.941C55.4152 167.941 72.3553 160.611 77.965 142.706Z" fill="black"/>
<path d="M108.814 169.23C108.262 169.23 107.731 169 107.353 168.586L81.6497 140.432C81.4377 140.2 81.1291 140.053 80.7806 140.018L80.6698 140.006C80.0418 139.937 79.4692 140.276 79.2725 140.832C74.1991 155.18 61.8474 162.483 58.1828 164.379C57.3571 164.808 56.3316 164.592 55.7438 163.867L40.5499 145.174C40.0682 144.582 39.9709 143.783 40.2953 143.09C40.6154 142.407 41.281 141.976 42.0327 141.965C53.779 141.784 65.3204 135.096 71.1547 131.125C71.5055 130.886 71.7151 130.473 71.7144 130.022C71.7151 129.55 71.5058 129.137 71.1547 128.898C65.3214 124.928 53.7813 118.24 42.0324 118.059C41.2806 118.047 40.6151 117.616 40.2953 116.933C39.9709 116.239 40.0682 115.441 40.5499 114.849L55.7441 96.1556C56.3326 95.4327 57.3581 95.2169 58.1825 95.6431C61.8468 97.54 74.1957 104.842 79.2701 119.186C79.4668 119.741 80.0286 120.088 80.5941 120.02C81.2096 119.942 81.8227 119.925 82.4152 119.969L107.353 92.6524C107.795 92.1689 108.446 91.9349 109.094 92.0286C109.743 92.1217 110.302 92.5277 110.59 93.115L121.544 115.49C121.788 115.988 121.81 116.569 121.604 117.084C121.399 117.599 120.982 118.006 120.462 118.2L92.7301 128.574C92.22 128.765 91.8867 129.262 91.9006 129.811L91.903 130.011C91.903 130.442 91.8729 130.879 91.8137 131.312C91.7377 131.869 92.0858 132.424 92.6415 132.632L120.463 143.039C120.983 143.234 121.399 143.64 121.605 144.156C121.81 144.671 121.788 145.251 121.544 145.75L110.59 168.124C110.302 168.712 109.743 169.118 109.094 169.21C109.001 169.224 108.907 169.23 108.814 169.23Z" fill="#6699DD"/>
<path d="M216.498 154.471L211.557 159.659L206.292 154.791L211.233 149.604L216.498 154.471Z" fill="#ED9DA0"/>
<path d="M220.443 159.784L209.942 170.81C209.045 171.753 207.924 172.497 206.7 172.964L203.773 174.08C203.167 174.31 202.47 174.177 201.997 173.739C201.442 173.226 201.301 172.404 201.655 171.74L204.471 166.458L207.476 155.745L207.509 155.765C208.327 156.268 209.566 157.024 209.655 157.056C211.211 157.111 212.325 156.72 212.966 155.893C214.085 154.451 213.375 152.149 213.368 152.126L213.362 152.108L213.376 152.096C213.702 151.818 214.046 151.706 214.397 151.765C215.143 151.89 215.676 152.727 215.754 152.856C216.454 152.827 218.603 154.509 218.776 154.646C219.831 154.643 220.604 154.893 221.074 155.389C221.485 155.823 221.664 156.439 221.606 157.22C221.536 158.159 221.123 159.07 220.443 159.784Z" fill="#090814"/>
<path d="M210.794 160.444H203.574V167.557H210.794V160.444Z" fill="#ED9DA0"/>
<path d="M209.562 174.027H194.215C192.903 174.027 191.585 173.731 190.403 173.171L187.574 171.831C186.989 171.554 186.611 170.962 186.611 170.323C186.611 169.573 187.123 168.909 187.857 168.709L193.694 167.118L203.679 161.947L203.686 161.984C203.873 162.916 204.163 164.324 204.199 164.409C205.223 165.565 206.275 166.098 207.326 165.993C209.159 165.81 210.377 163.725 210.389 163.704L210.398 163.687L210.417 163.689C210.846 163.733 211.163 163.904 211.36 164.196C211.778 164.817 211.523 165.774 211.481 165.918C211.982 166.401 212.207 169.096 212.224 169.313C212.948 170.069 213.292 170.796 213.246 171.473C213.207 172.066 212.873 172.616 212.256 173.108C211.513 173.701 210.556 174.027 209.562 174.027Z" fill="#090814"/>
<path d="M211.651 70.8582L186.068 70.8706L177.541 124.07L203.124 154.476L211.651 146.875L191.433 124.07L211.651 70.8582Z" fill="#090814"/>
<path d="M196.53 78.7002L211.651 70.8582V162.078L203.123 162.312L196.53 78.7002Z" fill="#090814"/>
<path d="M181.384 92.1913L181.564 83.8874L176.715 83.7822L176.535 92.0861C175.631 92.9259 175.033 94.2307 175.001 95.71C174.945 98.2984 176.636 100.434 178.778 100.481C180.921 100.527 182.703 98.4667 182.759 95.8783C182.791 94.3989 182.251 93.0695 181.384 92.1913Z" fill="#ED9DA0"/>
<path d="M204.375 11.0945C204.375 11.0945 211.334 11.0795 208.734 4.37352C206.134 -2.33245 201.293 0.670178 201.293 0.670178C201.293 0.670178 199.253 1.74769 199.674 4.15173" fill="#090814"/>
<path d="M205.071 14.3113C205.071 9.16971 200.903 5.00171 195.762 5.00171C190.62 5.00171 186.452 9.16971 186.452 14.3113C186.452 18.481 189.194 22.0101 192.973 23.1952L194.772 35.0891L203.947 27.4436C203.947 27.4436 201.965 24.919 200.902 22.0724C203.414 20.4052 205.071 17.5523 205.071 14.3113Z" fill="#ED9DA0"/>
<path d="M200.234 22.1754C200.234 22.1754 201.471 17.4356 199.449 15.2562C197.432 13.0818 197.172 16.4651 197.172 16.4651L195.716 16.1487C195.716 16.1487 195.97 12.8585 193.122 12.289L194.957 8.36605C194.957 8.36605 187.932 9.73008 187.738 9.04967C186.215 3.69594 200.749 -0.877399 204.765 7.2904C211.009 19.994 200.234 22.1754 200.234 22.1754Z" fill="#090814"/>
<path d="M192.011 30.469C185.253 31.7897 180.18 37.4171 179.564 44.2761L175.357 91.1838H182.74L192.011 30.469Z" fill="#6699DD"/>
<path d="M185.031 67.8422L183.881 81.0867L215.091 71.9073L211.288 62.3346L218.369 46.0741L203.914 25.355L192.374 26.1418L187.916 31.9116" fill="#6699DD"/>
<path d="M210.482 80.4201L214.835 73.3463L210.705 70.8047L206.352 77.8785C205.147 78.1458 203.972 78.9697 203.197 80.2299C201.84 82.4349 202.219 85.1327 204.044 86.2556C205.869 87.3786 208.448 86.5014 209.805 84.2964C210.581 83.0363 210.787 81.6162 210.482 80.4201Z" fill="#ED9DA0"/>
<path d="M201.554 25.6171L204.07 25.5127L208.373 28.7643C213.471 29.6337 214.949 29.8774 216.511 33.245C217.168 34.6601 217.603 36.1676 217.846 37.7084L221.486 60.7608L212.337 82.7912L206.275 75.9723L212.755 58.7484L211.679 54.6284" fill="#6699DD"/>
</svg>
