<svg width="66" height="57" viewBox="0 0 66 57" fill="none" xmlns="http://www.w3.org/2000/svg">
<path d="M12.6534 27.9702C10.0113 32.6947 4.40079 43.0834 3.89803 43.856C2.39512 46.153 -0.567917 44.8009 0.0952915 41.3658C1.38427 34.6002 8.39609 21.0793 13.8301 11.2753C4.46497 13.6506 7.74357 6.82228 13.2953 5.20395C23.3022 2.29096 38.9946 -1.00835 51.6971 0.291532C57.4093 0.87622 56.6872 4.64537 52.1624 4.83331C38.9946 5.64769 26.645 8.1535 22.8048 9.63088C20.4034 13.0972 19.0983 15.6448 17.1248 18.7353C20.6922 17.9992 24.741 17.284 27.7575 17.2109C30.7794 17.1378 31.5388 17.8896 31.4853 19.1582C31.4212 20.8078 29.7204 21.1106 28.0837 21.5334C23.4306 22.7759 21.5693 23.204 16.8092 24.6448C14.1564 25.454 14.0708 25.4279 12.6534 27.9702Z" fill="white"/>
<path d="M39.1014 26.2256C36.7042 26.2256 36.0189 28.6302 38.5628 29.0854C50.1701 31.1638 65.2866 17.3305 65.9825 10.9585C66.1452 9.45629 65.1559 8.39341 63.668 8.11717C56.3351 6.74647 26.8887 16.2361 26.8887 32.0977C26.8887 38.5618 31.5578 43.9209 39.1654 43.9209C47.8262 43.9209 57.0124 37.7357 61.0388 32.5687C62.1241 31.1743 61.9214 28.8012 59.3803 30.7218C51.994 36.3098 45.1624 37.6568 41.1466 37.6884C34.7123 37.7384 29.6886 31.6794 36.1016 24.2971C42.9598 16.4018 59.5776 11.1822 60.1269 11.8425C60.7775 12.6134 49.5861 26.2124 39.1014 26.2256Z" fill="white"/>
<path d="M0.460096 51.9826C0.460096 51.0136 0.669231 50.1518 1.0875 49.3971C1.50577 48.6331 2.0867 48.0414 2.83029 47.6221C3.58317 47.1935 4.43366 46.9792 5.38173 46.9792C6.54359 46.9792 7.53814 47.2867 8.36539 47.9016C9.19263 48.5166 9.74568 49.3551 10.0245 50.4173H7.40337C7.20818 50.0074 6.92933 49.6952 6.56683 49.4809C6.21362 49.2666 5.8093 49.1595 5.35385 49.1595C4.61955 49.1595 4.02468 49.4157 3.56923 49.9282C3.11378 50.4406 2.88606 51.1254 2.88606 51.9826C2.88606 52.8398 3.11378 53.5246 3.56923 54.0371C4.02468 54.5495 4.61955 54.8058 5.35385 54.8058C5.8093 54.8058 6.21362 54.6986 6.56683 54.4843C6.92933 54.27 7.20818 53.9579 7.40337 53.5479H10.0245C9.74568 54.6101 9.19263 55.4487 8.36539 56.0636C7.53814 56.6692 6.54359 56.972 5.38173 56.972C4.43366 56.972 3.58317 56.7624 2.83029 56.3431C2.0867 55.9145 1.50577 55.3229 1.0875 54.5682C0.669231 53.8135 0.460096 52.9516 0.460096 51.9826Z" fill="white"/>
<path d="M19.6826 47.091V56.9022H17.2985V52.8631H13.5898V56.9022H11.2057V47.091H13.5898V50.9344H17.2985V47.091H19.6826Z" fill="white"/>
<path d="M25.7537 57C24.8335 57 23.9877 56.7857 23.2162 56.3571C22.4541 55.9285 21.8452 55.3322 21.3898 54.5682C20.9436 53.7948 20.7206 52.9283 20.7206 51.9687C20.7206 51.009 20.9436 50.1471 21.3898 49.3831C21.8452 48.6191 22.4541 48.0228 23.2162 47.5942C23.9877 47.1656 24.8335 46.9513 25.7537 46.9513C26.6739 46.9513 27.5151 47.1656 28.2773 47.5942C29.0488 48.0228 29.6529 48.6191 30.0898 49.3831C30.536 50.1471 30.759 51.009 30.759 51.9687C30.759 52.9283 30.536 53.7948 30.0898 54.5682C29.6436 55.3322 29.0395 55.9285 28.2773 56.3571C27.5151 56.7857 26.6739 57 25.7537 57ZM25.7537 54.8198C26.5345 54.8198 27.1573 54.5589 27.622 54.0371C28.096 53.5153 28.3331 52.8258 28.3331 51.9687C28.3331 51.1021 28.096 50.4127 27.622 49.9002C27.1573 49.3784 26.5345 49.1176 25.7537 49.1176C24.9637 49.1176 24.3316 49.3738 23.8576 49.8862C23.3928 50.3987 23.1605 51.0928 23.1605 51.9687C23.1605 52.8352 23.3928 53.5293 23.8576 54.0511C24.3316 54.5635 24.9637 54.8198 25.7537 54.8198Z" fill="white"/>
<path d="M34.1907 47.091V56.9022H31.8066V47.091H34.1907Z" fill="white"/>
<path d="M35.2353 51.9826C35.2353 51.0136 35.4444 50.1518 35.8627 49.3971C36.2809 48.6331 36.8619 48.0414 37.6055 47.6221C38.3584 47.1935 39.2088 46.9792 40.1569 46.9792C41.3188 46.9792 42.3133 47.2867 43.1406 47.9016C43.9678 48.5166 44.5209 49.3551 44.7997 50.4173H42.1785C41.9834 50.0074 41.7045 49.6952 41.342 49.4809C40.9888 49.2666 40.5845 49.1595 40.129 49.1595C39.3947 49.1595 38.7999 49.4157 38.3444 49.9282C37.889 50.4406 37.6612 51.1254 37.6612 51.9826C37.6612 52.8398 37.889 53.5246 38.3444 54.0371C38.7999 54.5495 39.3947 54.8058 40.129 54.8058C40.5845 54.8058 40.9888 54.6986 41.342 54.4843C41.7045 54.27 41.9834 53.9579 42.1785 53.5479H44.7997C44.5209 54.6101 43.9678 55.4487 43.1406 56.0636C42.3133 56.6692 41.3188 56.972 40.1569 56.972C39.2088 56.972 38.3584 56.7624 37.6055 56.3431C36.8619 55.9145 36.2809 55.3229 35.8627 54.5682C35.4444 53.8135 35.2353 52.9516 35.2353 51.9826Z" fill="white"/>
<path d="M48.365 49.0057V50.9903H51.5578V52.8352H48.365V54.9875H51.9761V56.9022H45.9809V47.091H51.9761V49.0057H48.365Z" fill="white"/>
<path d="M56.7864 57C56.0707 57 55.4293 56.8835 54.8623 56.6506C54.2954 56.4177 53.8399 56.0729 53.496 55.6164C53.1614 55.1598 52.9848 54.6101 52.9662 53.9672H55.5037C55.5409 54.3306 55.6664 54.6101 55.8801 54.8058C56.0939 54.9921 56.3728 55.0853 56.7167 55.0853C57.0699 55.0853 57.3487 55.0061 57.5532 54.8477C57.7577 54.68 57.8599 54.4517 57.8599 54.1629C57.8599 53.9206 57.7763 53.7203 57.609 53.5619C57.451 53.4035 57.2511 53.2731 57.0095 53.1706C56.7771 53.0681 56.4425 52.9516 56.0056 52.8212C55.3736 52.6255 54.8577 52.4299 54.458 52.2342C54.0583 52.0385 53.7144 51.7497 53.4263 51.3677C53.1381 50.9857 52.9941 50.4872 52.9941 49.8723C52.9941 48.9592 53.324 48.2464 53.984 47.7339C54.6439 47.2122 55.5037 46.9513 56.5633 46.9513C57.6415 46.9513 58.5106 47.2122 59.1705 47.7339C59.8305 48.2464 60.1837 48.9638 60.2301 49.8862H57.6508C57.6322 49.5694 57.516 49.3225 57.3023 49.1455C57.0885 48.9592 56.8143 48.866 56.4797 48.866C56.1915 48.866 55.9591 48.9452 55.7825 49.1036C55.6059 49.2527 55.5176 49.4716 55.5176 49.7604C55.5176 50.0772 55.6664 50.3241 55.9638 50.5012C56.2612 50.6782 56.726 50.8692 57.358 51.0742C57.9901 51.2885 58.5013 51.4935 58.8917 51.6891C59.2914 51.8848 59.6353 52.169 59.9234 52.5417C60.2115 52.9144 60.3556 53.3942 60.3556 53.9812C60.3556 54.5402 60.2115 55.048 59.9234 55.5046C59.6446 55.9611 59.2356 56.3245 58.6965 56.5947C58.1574 56.8649 57.5207 57 56.7864 57Z" fill="white"/>
</svg>
